%TF.GenerationSoftware,KiCad,Pcbnew,8.0.1*%
%TF.CreationDate,2024-04-03T15:04:07+02:00*%
%TF.ProjectId,shelfDriver_v1.0,7368656c-6644-4726-9976-65725f76312e,rev?*%
%TF.SameCoordinates,Original*%
%TF.FileFunction,Paste,Top*%
%TF.FilePolarity,Positive*%
%FSLAX46Y46*%
G04 Gerber Fmt 4.6, Leading zero omitted, Abs format (unit mm)*
G04 Created by KiCad (PCBNEW 8.0.1) date 2024-04-03 15:04:07*
%MOMM*%
%LPD*%
G01*
G04 APERTURE LIST*
G04 Aperture macros list*
%AMRoundRect*
0 Rectangle with rounded corners*
0 $1 Rounding radius*
0 $2 $3 $4 $5 $6 $7 $8 $9 X,Y pos of 4 corners*
0 Add a 4 corners polygon primitive as box body*
4,1,4,$2,$3,$4,$5,$6,$7,$8,$9,$2,$3,0*
0 Add four circle primitives for the rounded corners*
1,1,$1+$1,$2,$3*
1,1,$1+$1,$4,$5*
1,1,$1+$1,$6,$7*
1,1,$1+$1,$8,$9*
0 Add four rect primitives between the rounded corners*
20,1,$1+$1,$2,$3,$4,$5,0*
20,1,$1+$1,$4,$5,$6,$7,0*
20,1,$1+$1,$6,$7,$8,$9,0*
20,1,$1+$1,$8,$9,$2,$3,0*%
G04 Aperture macros list end*
%ADD10RoundRect,0.125000X-0.125000X-0.175000X0.125000X-0.175000X0.125000X0.175000X-0.125000X0.175000X0*%
%ADD11RoundRect,0.125000X-0.175000X0.125000X-0.175000X-0.125000X0.175000X-0.125000X0.175000X0.125000X0*%
%ADD12RoundRect,0.150000X-0.350000X-0.150000X0.350000X-0.150000X0.350000X0.150000X-0.350000X0.150000X0*%
%ADD13O,4.000000X2.500000*%
%ADD14RoundRect,0.125000X0.125000X0.175000X-0.125000X0.175000X-0.125000X-0.175000X0.125000X-0.175000X0*%
%ADD15RoundRect,0.287500X0.287500X0.562500X-0.287500X0.562500X-0.287500X-0.562500X0.287500X-0.562500X0*%
%ADD16RoundRect,0.125000X0.175000X-0.125000X0.175000X0.125000X-0.175000X0.125000X-0.175000X-0.125000X0*%
%ADD17RoundRect,0.347826X-0.452174X-1.002174X0.452174X-1.002174X0.452174X1.002174X-0.452174X1.002174X0*%
%ADD18RoundRect,0.347826X0.452174X1.002174X-0.452174X1.002174X-0.452174X-1.002174X0.452174X-1.002174X0*%
%ADD19RoundRect,0.250000X0.250000X0.425000X-0.250000X0.425000X-0.250000X-0.425000X0.250000X-0.425000X0*%
%ADD20RoundRect,0.250000X-0.250000X-0.425000X0.250000X-0.425000X0.250000X0.425000X-0.250000X0.425000X0*%
%ADD21RoundRect,0.150000X0.350000X0.150000X-0.350000X0.150000X-0.350000X-0.150000X0.350000X-0.150000X0*%
%ADD22RoundRect,0.150000X0.200000X0.150000X-0.200000X0.150000X-0.200000X-0.150000X0.200000X-0.150000X0*%
%ADD23RoundRect,0.150000X0.737500X0.150000X-0.737500X0.150000X-0.737500X-0.150000X0.737500X-0.150000X0*%
%ADD24RoundRect,0.587500X-1.162500X0.587500X-1.162500X-0.587500X1.162500X-0.587500X1.162500X0.587500X0*%
%ADD25R,0.610000X0.650000*%
%ADD26RoundRect,0.062500X-0.062500X0.187500X-0.062500X-0.187500X0.062500X-0.187500X0.062500X0.187500X0*%
%ADD27RoundRect,0.587500X-0.587500X-1.162500X0.587500X-1.162500X0.587500X1.162500X-0.587500X1.162500X0*%
%ADD28RoundRect,0.175000X0.175000X-0.325000X0.175000X0.325000X-0.175000X0.325000X-0.175000X-0.325000X0*%
%ADD29RoundRect,0.100000X0.100000X-0.850000X0.100000X0.850000X-0.100000X0.850000X-0.100000X-0.850000X0*%
%ADD30RoundRect,0.075000X0.075000X-0.525000X0.075000X0.525000X-0.075000X0.525000X-0.075000X-0.525000X0*%
%ADD31RoundRect,0.075000X0.525000X-0.075000X0.525000X0.075000X-0.525000X0.075000X-0.525000X-0.075000X0*%
G04 APERTURE END LIST*
D10*
%TO.C,R32*%
X134300000Y-82300000D03*
X135300000Y-82300000D03*
%TD*%
D11*
%TO.C,R48*%
X136500000Y-83500000D03*
X136500000Y-84500000D03*
%TD*%
D12*
%TO.C,U9*%
X152000000Y-101050000D03*
X152000000Y-102000000D03*
X152000000Y-102950000D03*
X154400000Y-102950000D03*
X154400000Y-102000000D03*
X154400000Y-101050000D03*
%TD*%
D11*
%TO.C,C43*%
X135300000Y-83100000D03*
X135300000Y-84100000D03*
%TD*%
D13*
%TO.C,PWR1*%
X120000000Y-82000000D03*
%TD*%
D11*
%TO.C,C38*%
X124300000Y-89901560D03*
X124300000Y-90901560D03*
%TD*%
D14*
%TO.C,R37*%
X143300000Y-100600000D03*
X142300000Y-100600000D03*
%TD*%
D15*
%TO.C,C15*%
X148350000Y-78201560D03*
X145200000Y-78201560D03*
%TD*%
D10*
%TO.C,R33*%
X129100000Y-103400000D03*
X130100000Y-103400000D03*
%TD*%
D16*
%TO.C,R29*%
X143500000Y-82000000D03*
X143500000Y-81000000D03*
%TD*%
D10*
%TO.C,R1*%
X147300000Y-87701560D03*
X148300000Y-87701560D03*
%TD*%
D13*
%TO.C,LED4*%
X160000000Y-98000000D03*
%TD*%
D14*
%TO.C,C10*%
X140900000Y-98000000D03*
X139900000Y-98000000D03*
%TD*%
D10*
%TO.C,C7*%
X142700000Y-85000000D03*
X143700000Y-85000000D03*
%TD*%
D11*
%TO.C,R19*%
X151400000Y-86701560D03*
X151400000Y-87701560D03*
%TD*%
D10*
%TO.C,R34*%
X142300000Y-103400000D03*
X143300000Y-103400000D03*
%TD*%
D16*
%TO.C,C1*%
X133500000Y-85900000D03*
X133500000Y-84900000D03*
%TD*%
D14*
%TO.C,C11*%
X140900000Y-97100000D03*
X139900000Y-97100000D03*
%TD*%
D11*
%TO.C,R18*%
X152300000Y-98001560D03*
X152300000Y-99001560D03*
%TD*%
%TO.C,R27*%
X131800000Y-79601560D03*
X131800000Y-80601560D03*
%TD*%
%TO.C,C46*%
X124500000Y-102400000D03*
X124500000Y-103400000D03*
%TD*%
D13*
%TO.C,COM2*%
X120000000Y-98000000D03*
%TD*%
D17*
%TO.C,C31*%
X129100000Y-93101560D03*
X131900000Y-93101560D03*
%TD*%
D18*
%TO.C,C34*%
X127100000Y-93101560D03*
X124300000Y-93101560D03*
%TD*%
D14*
%TO.C,R36*%
X130100000Y-100600000D03*
X129100000Y-100600000D03*
%TD*%
D17*
%TO.C,C32*%
X129100000Y-96201560D03*
X131900000Y-96201560D03*
%TD*%
D19*
%TO.C,C18*%
X147200000Y-91401560D03*
X145200000Y-91401560D03*
%TD*%
D11*
%TO.C,C44*%
X134400000Y-83100000D03*
X134400000Y-84100000D03*
%TD*%
D20*
%TO.C,C27*%
X154200000Y-85401560D03*
X156200000Y-85401560D03*
%TD*%
D16*
%TO.C,C2*%
X134400000Y-85900000D03*
X134400000Y-84900000D03*
%TD*%
D11*
%TO.C,R43*%
X139200000Y-83500000D03*
X139200000Y-84500000D03*
%TD*%
D10*
%TO.C,C23*%
X145000000Y-85001560D03*
X146000000Y-85001560D03*
%TD*%
%TO.C,R26*%
X125600000Y-79901560D03*
X126600000Y-79901560D03*
%TD*%
D19*
%TO.C,C25*%
X152200000Y-85401560D03*
X150200000Y-85401560D03*
%TD*%
D13*
%TO.C,LED1*%
X160000000Y-82000000D03*
%TD*%
D21*
%TO.C,U6*%
X147600000Y-95051560D03*
X147600000Y-94101560D03*
X147600000Y-93151560D03*
X145200000Y-93151560D03*
X145200000Y-94101560D03*
X145200000Y-95051560D03*
%TD*%
D10*
%TO.C,C30*%
X145000000Y-97201560D03*
X146000000Y-97201560D03*
%TD*%
D14*
%TO.C,R23*%
X126600000Y-82601560D03*
X125600000Y-82601560D03*
%TD*%
D11*
%TO.C,R12*%
X155000000Y-98001560D03*
X155000000Y-99001560D03*
%TD*%
%TO.C,R20*%
X151400000Y-98001560D03*
X151400000Y-99001560D03*
%TD*%
D10*
%TO.C,C51*%
X155500000Y-101500000D03*
X156500000Y-101500000D03*
%TD*%
D11*
%TO.C,R46*%
X133400000Y-91300000D03*
X133400000Y-92300000D03*
%TD*%
D15*
%TO.C,C16*%
X148375000Y-89501560D03*
X145225000Y-89501560D03*
%TD*%
D10*
%TO.C,C24*%
X145000000Y-96301560D03*
X146000000Y-96301560D03*
%TD*%
%TO.C,C22*%
X147300000Y-96301560D03*
X148300000Y-96301560D03*
%TD*%
D22*
%TO.C,D1*%
X135200000Y-81150000D03*
X135200000Y-79250000D03*
X133000000Y-80200000D03*
%TD*%
D14*
%TO.C,C6*%
X134700000Y-94200000D03*
X133700000Y-94200000D03*
%TD*%
D11*
%TO.C,R14*%
X154100000Y-98001560D03*
X154100000Y-99001560D03*
%TD*%
D23*
%TO.C,U3*%
X141962500Y-82105000D03*
X141962500Y-80835000D03*
X141962500Y-79565000D03*
X141962500Y-78295000D03*
X136837500Y-78295000D03*
X136837500Y-79565000D03*
X136837500Y-80835000D03*
X136837500Y-82105000D03*
%TD*%
D10*
%TO.C,C50*%
X142300000Y-101500000D03*
X143300000Y-101500000D03*
%TD*%
D11*
%TO.C,R11*%
X155000000Y-86701560D03*
X155000000Y-87701560D03*
%TD*%
%TO.C,R13*%
X154100000Y-86701560D03*
X154100000Y-87701560D03*
%TD*%
D10*
%TO.C,C53*%
X142300000Y-102500000D03*
X143300000Y-102500000D03*
%TD*%
%TO.C,R24*%
X125600000Y-81701560D03*
X126600000Y-81701560D03*
%TD*%
D11*
%TO.C,R21*%
X150500000Y-86701560D03*
X150500000Y-87701560D03*
%TD*%
D14*
%TO.C,R4*%
X148300000Y-97201560D03*
X147300000Y-97201560D03*
%TD*%
D11*
%TO.C,R41*%
X150900000Y-100600000D03*
X150900000Y-101600000D03*
%TD*%
D10*
%TO.C,C21*%
X147300000Y-85001560D03*
X148300000Y-85001560D03*
%TD*%
D24*
%TO.C,L3*%
X129400000Y-84176560D03*
X129400000Y-90226560D03*
%TD*%
D10*
%TO.C,R2*%
X147300000Y-99001560D03*
X148300000Y-99001560D03*
%TD*%
D19*
%TO.C,C28*%
X152200000Y-96701560D03*
X150200000Y-96701560D03*
%TD*%
D10*
%TO.C,C9*%
X143200000Y-86800000D03*
X144200000Y-86800000D03*
%TD*%
D11*
%TO.C,C13*%
X148300000Y-79601560D03*
X148300000Y-80601560D03*
%TD*%
D13*
%TO.C,COM1*%
X120000000Y-94000000D03*
%TD*%
D10*
%TO.C,R49*%
X133500000Y-86800000D03*
X134500000Y-86800000D03*
%TD*%
D15*
%TO.C,C36*%
X128375000Y-78301560D03*
X125225000Y-78301560D03*
%TD*%
D25*
%TO.C,U7*%
X129700000Y-80701560D03*
X128900000Y-80701560D03*
X128100000Y-80701560D03*
D26*
X129900000Y-79751560D03*
X129400000Y-79751560D03*
X128900000Y-79751560D03*
X128400000Y-79751560D03*
X127900000Y-79751560D03*
X127900000Y-81651560D03*
X128400000Y-81651560D03*
X128900000Y-81651560D03*
X129400000Y-81651560D03*
X129900000Y-81651560D03*
%TD*%
D19*
%TO.C,C17*%
X147200000Y-80101560D03*
X145200000Y-80101560D03*
%TD*%
D10*
%TO.C,R8*%
X145000000Y-98101560D03*
X146000000Y-98101560D03*
%TD*%
D11*
%TO.C,R40*%
X137700000Y-100600000D03*
X137700000Y-101600000D03*
%TD*%
%TO.C,C47*%
X137700000Y-102400000D03*
X137700000Y-103400000D03*
%TD*%
%TO.C,R15*%
X153200000Y-86701560D03*
X153200000Y-87701560D03*
%TD*%
%TO.C,R42*%
X140100000Y-83500000D03*
X140100000Y-84500000D03*
%TD*%
D10*
%TO.C,C49*%
X129100000Y-102500000D03*
X130100000Y-102500000D03*
%TD*%
D11*
%TO.C,R5*%
X155900000Y-86701560D03*
X155900000Y-87701560D03*
%TD*%
D10*
%TO.C,R7*%
X145000000Y-86801560D03*
X146000000Y-86801560D03*
%TD*%
D27*
%TO.C,L1*%
X150175000Y-81001560D03*
X156225000Y-81001560D03*
%TD*%
%TO.C,L2*%
X150175000Y-92301560D03*
X156225000Y-92301560D03*
%TD*%
D10*
%TO.C,C52*%
X129100000Y-101500000D03*
X130100000Y-101500000D03*
%TD*%
D14*
%TO.C,R3*%
X148300000Y-85901560D03*
X147300000Y-85901560D03*
%TD*%
D11*
%TO.C,R17*%
X152300000Y-86701560D03*
X152300000Y-87701560D03*
%TD*%
D14*
%TO.C,R10*%
X146000000Y-99001560D03*
X145000000Y-99001560D03*
%TD*%
%TO.C,R50*%
X139100000Y-98900000D03*
X138100000Y-98900000D03*
%TD*%
%TO.C,R38*%
X156500000Y-100600000D03*
X155500000Y-100600000D03*
%TD*%
D11*
%TO.C,R47*%
X133400000Y-88800000D03*
X133400000Y-89800000D03*
%TD*%
D14*
%TO.C,R51*%
X140900000Y-98900000D03*
X139900000Y-98900000D03*
%TD*%
D28*
%TO.C,U2*%
X123350000Y-88701560D03*
X124300000Y-88701560D03*
X125250000Y-88701560D03*
X125250000Y-86101560D03*
X123350000Y-86101560D03*
%TD*%
D16*
%TO.C,C40*%
X123400000Y-85001560D03*
X123400000Y-84001560D03*
%TD*%
D29*
%TO.C,Y1*%
X135700000Y-97000000D03*
X136900000Y-97000000D03*
X138100000Y-97000000D03*
%TD*%
D11*
%TO.C,R39*%
X124500000Y-100600000D03*
X124500000Y-101600000D03*
%TD*%
%TO.C,R22*%
X150500000Y-98001560D03*
X150500000Y-99001560D03*
%TD*%
D14*
%TO.C,C19*%
X148300000Y-86801560D03*
X147300000Y-86801560D03*
%TD*%
D11*
%TO.C,C37*%
X125200000Y-89901560D03*
X125200000Y-90901560D03*
%TD*%
%TO.C,R6*%
X155900000Y-98001560D03*
X155900000Y-99001560D03*
%TD*%
D10*
%TO.C,C29*%
X145000000Y-85901560D03*
X146000000Y-85901560D03*
%TD*%
D16*
%TO.C,C41*%
X125200000Y-85001560D03*
X125200000Y-84001560D03*
%TD*%
D10*
%TO.C,C54*%
X155500000Y-102500000D03*
X156500000Y-102500000D03*
%TD*%
D14*
%TO.C,C12*%
X140900000Y-96200000D03*
X139900000Y-96200000D03*
%TD*%
D13*
%TO.C,LED3*%
X160000000Y-94000000D03*
%TD*%
D14*
%TO.C,C4*%
X134700000Y-96000000D03*
X133700000Y-96000000D03*
%TD*%
D20*
%TO.C,C26*%
X154200000Y-96701560D03*
X156200000Y-96701560D03*
%TD*%
D18*
%TO.C,C33*%
X127100000Y-96201560D03*
X124300000Y-96201560D03*
%TD*%
D21*
%TO.C,U5*%
X147600000Y-83751560D03*
X147600000Y-82801560D03*
X147600000Y-81851560D03*
X145200000Y-81851560D03*
X145200000Y-82801560D03*
X145200000Y-83751560D03*
%TD*%
D14*
%TO.C,R25*%
X126600000Y-80801560D03*
X125600000Y-80801560D03*
%TD*%
D11*
%TO.C,R45*%
X137400000Y-83500000D03*
X137400000Y-84500000D03*
%TD*%
%TO.C,R28*%
X131800000Y-81401560D03*
X131800000Y-82401560D03*
%TD*%
D16*
%TO.C,C3*%
X135300000Y-85900000D03*
X135300000Y-84900000D03*
%TD*%
D12*
%TO.C,U4*%
X125600000Y-101050000D03*
X125600000Y-102000000D03*
X125600000Y-102950000D03*
X128000000Y-102950000D03*
X128000000Y-102000000D03*
X128000000Y-101050000D03*
%TD*%
D11*
%TO.C,R16*%
X153200000Y-98001560D03*
X153200000Y-99001560D03*
%TD*%
%TO.C,C14*%
X148300000Y-90901560D03*
X148300000Y-91901560D03*
%TD*%
%TO.C,R44*%
X138300000Y-83500000D03*
X138300000Y-84500000D03*
%TD*%
D16*
%TO.C,C42*%
X124300000Y-85001560D03*
X124300000Y-84001560D03*
%TD*%
D10*
%TO.C,R35*%
X155500000Y-103400000D03*
X156500000Y-103400000D03*
%TD*%
D11*
%TO.C,C39*%
X123400000Y-89901560D03*
X123400000Y-90901560D03*
%TD*%
D10*
%TO.C,R31*%
X134300000Y-78100000D03*
X135300000Y-78100000D03*
%TD*%
D12*
%TO.C,U8*%
X138800000Y-101050000D03*
X138800000Y-102000000D03*
X138800000Y-102950000D03*
X141200000Y-102950000D03*
X141200000Y-102000000D03*
X141200000Y-101050000D03*
%TD*%
D11*
%TO.C,C48*%
X150900000Y-102400000D03*
X150900000Y-103400000D03*
%TD*%
%TO.C,R30*%
X143500000Y-78400000D03*
X143500000Y-79400000D03*
%TD*%
D14*
%TO.C,C5*%
X134700000Y-95100000D03*
X133700000Y-95100000D03*
%TD*%
D11*
%TO.C,C45*%
X133500000Y-83100000D03*
X133500000Y-84100000D03*
%TD*%
D10*
%TO.C,C8*%
X142700000Y-85900000D03*
X143700000Y-85900000D03*
%TD*%
D30*
%TO.C,U1*%
X136250000Y-94750000D03*
X136750000Y-94750000D03*
X137250000Y-94750000D03*
X137750000Y-94750000D03*
X138250000Y-94750000D03*
X138750000Y-94750000D03*
X139250000Y-94750000D03*
X139750000Y-94750000D03*
X140250000Y-94750000D03*
X140750000Y-94750000D03*
X141250000Y-94750000D03*
X141750000Y-94750000D03*
D31*
X143250000Y-93250000D03*
X143250000Y-92750000D03*
X143250000Y-92250000D03*
X143250000Y-91750000D03*
X143250000Y-91250000D03*
X143250000Y-90750000D03*
X143250000Y-90250000D03*
X143250000Y-89750000D03*
X143250000Y-89250000D03*
X143250000Y-88750000D03*
X143250000Y-88250000D03*
X143250000Y-87750000D03*
D30*
X141750000Y-86250000D03*
X141250000Y-86250000D03*
X140750000Y-86250000D03*
X140250000Y-86250000D03*
X139750000Y-86250000D03*
X139250000Y-86250000D03*
X138750000Y-86250000D03*
X138250000Y-86250000D03*
X137750000Y-86250000D03*
X137250000Y-86250000D03*
X136750000Y-86250000D03*
X136250000Y-86250000D03*
D31*
X134750000Y-87750000D03*
X134750000Y-88250000D03*
X134750000Y-88750000D03*
X134750000Y-89250000D03*
X134750000Y-89750000D03*
X134750000Y-90250000D03*
X134750000Y-90750000D03*
X134750000Y-91250000D03*
X134750000Y-91750000D03*
X134750000Y-92250000D03*
X134750000Y-92750000D03*
X134750000Y-93250000D03*
%TD*%
D13*
%TO.C,PWR2*%
X120000000Y-86000000D03*
%TD*%
D14*
%TO.C,R9*%
X146000000Y-87701560D03*
X145000000Y-87701560D03*
%TD*%
D20*
%TO.C,C35*%
X129800000Y-78101560D03*
X131800000Y-78101560D03*
%TD*%
D14*
%TO.C,C20*%
X148300000Y-98101560D03*
X147300000Y-98101560D03*
%TD*%
D13*
%TO.C,LED2*%
X160000000Y-86000000D03*
%TD*%
M02*
