%TF.GenerationSoftware,KiCad,Pcbnew,8.0.1*%
%TF.CreationDate,2024-04-03T15:04:06+02:00*%
%TF.ProjectId,shelfDriver_v1.0,7368656c-6644-4726-9976-65725f76312e,rev?*%
%TF.SameCoordinates,Original*%
%TF.FileFunction,Copper,L2,Inr*%
%TF.FilePolarity,Positive*%
%FSLAX46Y46*%
G04 Gerber Fmt 4.6, Leading zero omitted, Abs format (unit mm)*
G04 Created by KiCad (PCBNEW 8.0.1) date 2024-04-03 15:04:06*
%MOMM*%
%LPD*%
G01*
G04 APERTURE LIST*
%TA.AperFunction,ViaPad*%
%ADD10C,0.600000*%
%TD*%
%TA.AperFunction,Conductor*%
%ADD11C,1.000000*%
%TD*%
%TA.AperFunction,Conductor*%
%ADD12C,0.300000*%
%TD*%
G04 APERTURE END LIST*
D10*
%TO.N,GND*%
X146100000Y-77601560D03*
X148400000Y-81101560D03*
X137500000Y-107400000D03*
X123700000Y-87701560D03*
X133000000Y-96300000D03*
X133950000Y-84500000D03*
X120600000Y-84400000D03*
X120600000Y-87600000D03*
X127510400Y-81010400D03*
X130300000Y-80700000D03*
X153200000Y-99501560D03*
X155900000Y-88201560D03*
X155900000Y-99501560D03*
X119400000Y-87600000D03*
X119400000Y-84400000D03*
X146557124Y-85630138D03*
X120000000Y-87600000D03*
X124300000Y-87701560D03*
X120000000Y-84400000D03*
X143900000Y-102500000D03*
X134850000Y-84500000D03*
X146100000Y-89501560D03*
X146100000Y-90101560D03*
X133000000Y-80800000D03*
X146550000Y-97196729D03*
X148900000Y-96201560D03*
X123300000Y-96200000D03*
X148400000Y-92401560D03*
X153200000Y-88201560D03*
X138000000Y-78300000D03*
X139600000Y-93700000D03*
X148900000Y-84901560D03*
X148900000Y-83701560D03*
X146100000Y-78801560D03*
X123800000Y-102400000D03*
X124900000Y-87701560D03*
X136900000Y-98400000D03*
X133000000Y-79600000D03*
X126000000Y-78300000D03*
X148900000Y-95001560D03*
%TO.N,+3V3*%
X138700000Y-90500000D03*
X139300000Y-90500000D03*
X150300000Y-100600000D03*
X124200000Y-86101560D03*
X123900000Y-100600000D03*
X137100000Y-100600000D03*
X124200000Y-85501560D03*
%TO.N,Net-(U5-PWM)*%
X146762143Y-84335002D03*
X146000000Y-82801560D03*
%TO.N,Net-(U6-PWM)*%
X146700000Y-95800000D03*
X146000000Y-94101560D03*
%TO.N,Net-(U4-I)*%
X125600000Y-103600000D03*
%TO.N,Net-(U8-I)*%
X138800000Y-103600000D03*
%TO.N,Net-(U9-I)*%
X152000000Y-103600000D03*
%TO.N,/CommunicationLayer/RS485_A*%
X122300000Y-94000000D03*
X135200000Y-78700000D03*
%TO.N,/CommunicationLayer/RS485_B*%
X122300000Y-98000000D03*
X135200000Y-81700000D03*
%TO.N,/Brain/WarmWhite_Dim*%
X146749999Y-87698064D03*
X141956815Y-89635996D03*
%TO.N,/Brain/NaturalWhite_Dim*%
X141643265Y-88900000D03*
X146749999Y-98998064D03*
%TO.N,Net-(U7-~{Sleep})*%
X131300000Y-81400000D03*
X128818331Y-82501371D03*
%TO.N,/Brain/RS485_nRE*%
X140900000Y-80835000D03*
X139600000Y-80837349D03*
%TO.N,/Brain/RS485_DI*%
X140109360Y-82910920D03*
X139600000Y-80026295D03*
%TO.N,/Brain/TouchLeft*%
X135900000Y-99200000D03*
X141000000Y-93600000D03*
%TO.N,/Brain/SWTRACE*%
X133400000Y-90300000D03*
X145000000Y-107400000D03*
%TO.N,/Brain/SWDIO*%
X136759153Y-82954986D03*
X140000000Y-107400000D03*
%TO.N,/Brain/SWCLK*%
X133500000Y-87400000D03*
X135000000Y-107400000D03*
%TO.N,/Brain/NRST*%
X142500000Y-107400000D03*
%TD*%
D11*
%TO.N,+3V3*%
X137100000Y-100600000D02*
X138600000Y-100600000D01*
X138600000Y-91200000D02*
X139300000Y-90500000D01*
X138600000Y-90600000D02*
X138700000Y-90500000D01*
X138700000Y-90500000D02*
X139300000Y-90500000D01*
X138600000Y-100600000D02*
X150300000Y-100600000D01*
X124200000Y-85501560D02*
X124200000Y-86101560D01*
X121300000Y-88687346D02*
X121300000Y-98414214D01*
X138600000Y-100600000D02*
X138600000Y-92000000D01*
X123485786Y-100600000D02*
X123900000Y-100600000D01*
X138600000Y-92000000D02*
X138600000Y-90600000D01*
X123885786Y-86101560D02*
X123493673Y-86493673D01*
X124200000Y-85501560D02*
X124200000Y-85787346D01*
X123493673Y-86493673D02*
X121300000Y-88687346D01*
X138600000Y-92000000D02*
X138600000Y-91200000D01*
X121300000Y-98414214D02*
X123485786Y-100600000D01*
X124200000Y-86101560D02*
X123885786Y-86101560D01*
X123900000Y-100600000D02*
X137100000Y-100600000D01*
X124200000Y-85787346D02*
X123493673Y-86493673D01*
D12*
%TO.N,Net-(U5-PWM)*%
X146762143Y-84335002D02*
X146762143Y-83563703D01*
X146762143Y-83563703D02*
X146000000Y-82801560D01*
%TO.N,Net-(U6-PWM)*%
X146700000Y-94801560D02*
X146000000Y-94101560D01*
X146700000Y-95800000D02*
X146700000Y-94801560D01*
%TO.N,/CommunicationLayer/RS485_A*%
X132913172Y-81806067D02*
X132913172Y-83598961D01*
X122512133Y-94000000D02*
X122300000Y-94000000D01*
X135200000Y-80500000D02*
X134500000Y-81200000D01*
X133519238Y-81200000D02*
X132913172Y-81806067D01*
X134500000Y-81200000D02*
X133519238Y-81200000D01*
X132913172Y-83598961D02*
X122512133Y-94000000D01*
X135200000Y-78700000D02*
X135200000Y-80500000D01*
%TO.N,/CommunicationLayer/RS485_B*%
X133726345Y-81700000D02*
X133413172Y-82013173D01*
X135200000Y-81700000D02*
X133726345Y-81700000D01*
X133413172Y-83806067D02*
X122300000Y-94919239D01*
X133413172Y-82013173D02*
X133413172Y-83806067D01*
X122300000Y-94919239D02*
X122300000Y-98000000D01*
%TO.N,/Brain/WarmWhite_Dim*%
X141956815Y-89635996D02*
X143894747Y-87698064D01*
X143894747Y-87698064D02*
X146749999Y-87698064D01*
%TO.N,/Brain/NaturalWhite_Dim*%
X145900000Y-96500000D02*
X145900000Y-98360198D01*
X141270000Y-89273265D02*
X141270000Y-91870000D01*
X141643265Y-88900000D02*
X141270000Y-89273265D01*
X146537866Y-98998064D02*
X146749999Y-98998064D01*
X141270000Y-91870000D02*
X145900000Y-96500000D01*
X145900000Y-98360198D02*
X146537866Y-98998064D01*
%TO.N,Net-(U7-~{Sleep})*%
X128818331Y-82501301D02*
X129919632Y-81400000D01*
X129919632Y-81400000D02*
X131300000Y-81400000D01*
%TO.N,/Brain/RS485_nRE*%
X139608702Y-80835000D02*
X140900000Y-80835000D01*
%TO.N,/Brain/RS485_DI*%
X139330761Y-80176298D02*
X138950000Y-80557059D01*
X138950000Y-81751560D02*
X140109360Y-82910920D01*
X139600000Y-80176298D02*
X139330761Y-80176298D01*
X138950000Y-80557059D02*
X138950000Y-81751560D01*
%TO.N,/Brain/TouchLeft*%
X138347919Y-89649999D02*
X137749999Y-90247919D01*
X141000000Y-93600000D02*
X141000000Y-93014212D01*
X140270000Y-92284212D02*
X140270000Y-90267918D01*
X136250000Y-98850000D02*
X135900000Y-99200000D01*
X139652081Y-89649999D02*
X138347919Y-89649999D01*
X141000000Y-93014212D02*
X140270000Y-92284212D01*
X140270000Y-90267918D02*
X139652081Y-89649999D01*
X137749999Y-96350001D02*
X136250000Y-97850000D01*
X136250000Y-97850000D02*
X136250000Y-98850000D01*
X137749999Y-90247919D02*
X137749999Y-96350001D01*
%TO.N,/Brain/SWTRACE*%
X151200000Y-105100000D02*
X148700000Y-107600000D01*
X151200000Y-100297918D02*
X151200000Y-105100000D01*
X145400000Y-98567304D02*
X146532696Y-99700000D01*
X139859187Y-89149999D02*
X140770000Y-90060812D01*
X145200000Y-107600000D02*
X145000000Y-107400000D01*
X140770000Y-90060812D02*
X140770000Y-92077106D01*
X133400000Y-90300000D02*
X134550001Y-89149999D01*
X134550001Y-89149999D02*
X139859187Y-89149999D01*
X146532696Y-99700000D02*
X150602082Y-99700000D01*
X145400000Y-96707106D02*
X145400000Y-98567304D01*
X148700000Y-107600000D02*
X145200000Y-107600000D01*
X150602082Y-99700000D02*
X151200000Y-100297918D01*
X140770000Y-92077106D02*
X145400000Y-96707106D01*
%TO.N,/Brain/SWDIO*%
X141200000Y-108600000D02*
X140000000Y-107400000D01*
X136759153Y-82954986D02*
X140084305Y-86280138D01*
X149114212Y-108600000D02*
X141200000Y-108600000D01*
X148180138Y-86280138D02*
X155000000Y-93100000D01*
X155000000Y-93100000D02*
X155000000Y-102714212D01*
X140084305Y-86280138D02*
X148180138Y-86280138D01*
X155000000Y-102714212D02*
X149114212Y-108600000D01*
%TO.N,/Brain/SWCLK*%
X133500000Y-87400000D02*
X134119862Y-86780138D01*
X148907106Y-108100000D02*
X144780761Y-108100000D01*
X142680761Y-106000000D02*
X136400000Y-106000000D01*
X134119862Y-86780138D02*
X147973032Y-86780138D01*
X154500000Y-93307106D02*
X154500000Y-102507106D01*
X136400000Y-106000000D02*
X135000000Y-107400000D01*
X147973032Y-86780138D02*
X154500000Y-93307106D01*
X144780761Y-108100000D02*
X142680761Y-106000000D01*
X154500000Y-102507106D02*
X148907106Y-108100000D01*
%TD*%
%TA.AperFunction,Conductor*%
%TO.N,GND*%
G36*
X147845033Y-87149545D02*
G01*
X147856846Y-87159634D01*
X154120504Y-93423292D01*
X154148281Y-93477809D01*
X154149500Y-93493296D01*
X154149500Y-102320916D01*
X154130593Y-102379107D01*
X154120504Y-102390920D01*
X152634619Y-103876804D01*
X152580102Y-103904581D01*
X152519670Y-103895010D01*
X152476405Y-103851745D01*
X152466834Y-103791313D01*
X152474563Y-103765671D01*
X152485165Y-103742457D01*
X152505647Y-103600000D01*
X152485165Y-103457543D01*
X152425377Y-103326627D01*
X152331128Y-103217857D01*
X152331127Y-103217856D01*
X152331126Y-103217855D01*
X152210057Y-103140049D01*
X152210054Y-103140047D01*
X152210053Y-103140047D01*
X152210050Y-103140046D01*
X152071964Y-103099500D01*
X152071961Y-103099500D01*
X151928039Y-103099500D01*
X151928035Y-103099500D01*
X151789949Y-103140046D01*
X151789942Y-103140049D01*
X151703023Y-103195909D01*
X151643848Y-103211464D01*
X151586832Y-103189265D01*
X151553752Y-103137792D01*
X151550500Y-103112625D01*
X151550500Y-100251775D01*
X151550500Y-100251774D01*
X151526614Y-100162630D01*
X151480470Y-100082706D01*
X150817294Y-99419530D01*
X150737370Y-99373386D01*
X150648226Y-99349500D01*
X150648224Y-99349500D01*
X147293773Y-99349500D01*
X147235582Y-99330593D01*
X147199618Y-99281093D01*
X147199618Y-99219907D01*
X147203720Y-99209373D01*
X147208000Y-99200002D01*
X147235164Y-99140521D01*
X147255646Y-98998064D01*
X147253809Y-98985288D01*
X147235164Y-98855607D01*
X147201784Y-98782516D01*
X147175376Y-98724691D01*
X147081127Y-98615921D01*
X147081126Y-98615920D01*
X147081125Y-98615919D01*
X146960056Y-98538113D01*
X146960053Y-98538111D01*
X146960052Y-98538111D01*
X146960049Y-98538110D01*
X146821963Y-98497564D01*
X146821960Y-98497564D01*
X146678038Y-98497564D01*
X146678036Y-98497564D01*
X146678032Y-98497565D01*
X146622316Y-98513924D01*
X146561156Y-98512176D01*
X146524422Y-98488938D01*
X146279496Y-98244012D01*
X146251719Y-98189495D01*
X146250500Y-98174008D01*
X146250500Y-96453857D01*
X146250500Y-96453856D01*
X146226614Y-96364712D01*
X146191479Y-96303857D01*
X146180470Y-96284788D01*
X143997244Y-94101562D01*
X145494353Y-94101562D01*
X145514834Y-94244016D01*
X145574622Y-94374931D01*
X145574623Y-94374933D01*
X145598483Y-94402469D01*
X145668873Y-94483704D01*
X145789942Y-94561510D01*
X145789947Y-94561513D01*
X145896403Y-94592771D01*
X145928035Y-94602059D01*
X145928036Y-94602059D01*
X145928039Y-94602060D01*
X145963810Y-94602060D01*
X146022001Y-94620967D01*
X146033814Y-94631056D01*
X146320504Y-94917746D01*
X146348281Y-94972263D01*
X146349500Y-94987750D01*
X146349500Y-95403287D01*
X146330593Y-95461478D01*
X146325320Y-95468117D01*
X146274623Y-95526626D01*
X146214834Y-95657543D01*
X146194353Y-95799997D01*
X146194353Y-95800002D01*
X146214834Y-95942456D01*
X146274622Y-96073371D01*
X146274623Y-96073373D01*
X146368872Y-96182143D01*
X146368873Y-96182144D01*
X146430894Y-96222002D01*
X146489947Y-96259953D01*
X146574542Y-96284792D01*
X146628035Y-96300499D01*
X146628036Y-96300499D01*
X146628039Y-96300500D01*
X146628041Y-96300500D01*
X146771959Y-96300500D01*
X146771961Y-96300500D01*
X146910053Y-96259953D01*
X147031128Y-96182143D01*
X147125377Y-96073373D01*
X147185165Y-95942457D01*
X147205647Y-95800000D01*
X147185165Y-95657543D01*
X147125377Y-95526627D01*
X147121019Y-95521597D01*
X147074680Y-95468117D01*
X147050863Y-95411757D01*
X147050500Y-95403287D01*
X147050500Y-94755417D01*
X147036730Y-94704027D01*
X147026614Y-94666272D01*
X147026612Y-94666269D01*
X147026612Y-94666267D01*
X146980472Y-94586351D01*
X146980468Y-94586346D01*
X146530619Y-94136496D01*
X146502842Y-94081980D01*
X146502631Y-94080582D01*
X146485165Y-93959103D01*
X146425377Y-93828188D01*
X146425377Y-93828187D01*
X146331128Y-93719417D01*
X146331127Y-93719416D01*
X146331126Y-93719415D01*
X146210057Y-93641609D01*
X146210054Y-93641607D01*
X146210053Y-93641607D01*
X146210050Y-93641606D01*
X146071964Y-93601060D01*
X146071961Y-93601060D01*
X145928039Y-93601060D01*
X145928035Y-93601060D01*
X145789949Y-93641606D01*
X145789942Y-93641609D01*
X145668873Y-93719415D01*
X145574622Y-93828188D01*
X145514834Y-93959103D01*
X145494353Y-94101557D01*
X145494353Y-94101562D01*
X143997244Y-94101562D01*
X141649496Y-91753814D01*
X141621719Y-91699297D01*
X141620500Y-91683810D01*
X141620500Y-90191123D01*
X141639407Y-90132932D01*
X141688907Y-90096968D01*
X141747388Y-90096133D01*
X141884854Y-90136496D01*
X141884856Y-90136496D01*
X142028774Y-90136496D01*
X142028776Y-90136496D01*
X142166868Y-90095949D01*
X142287943Y-90018139D01*
X142382192Y-89909369D01*
X142441980Y-89778453D01*
X142441979Y-89778453D01*
X142441981Y-89778451D01*
X142459446Y-89656973D01*
X142486441Y-89602065D01*
X142487366Y-89601125D01*
X144010933Y-88077560D01*
X144065450Y-88049783D01*
X144080937Y-88048564D01*
X146346240Y-88048564D01*
X146404431Y-88067471D01*
X146413402Y-88075704D01*
X146413519Y-88075570D01*
X146418870Y-88080207D01*
X146539941Y-88158014D01*
X146539946Y-88158017D01*
X146646402Y-88189275D01*
X146678034Y-88198563D01*
X146678035Y-88198563D01*
X146678038Y-88198564D01*
X146678040Y-88198564D01*
X146821958Y-88198564D01*
X146821960Y-88198564D01*
X146960052Y-88158017D01*
X147081127Y-88080207D01*
X147175376Y-87971437D01*
X147235164Y-87840521D01*
X147255646Y-87698064D01*
X147235164Y-87555607D01*
X147175376Y-87424691D01*
X147081127Y-87315921D01*
X147076459Y-87312921D01*
X147037729Y-87265556D01*
X147034236Y-87204470D01*
X147067316Y-87152998D01*
X147124332Y-87130799D01*
X147129984Y-87130638D01*
X147786842Y-87130638D01*
X147845033Y-87149545D01*
G37*
%TD.AperFunction*%
%TA.AperFunction,Conductor*%
G36*
X139865445Y-91021953D02*
G01*
X139908710Y-91065218D01*
X139919500Y-91110163D01*
X139919500Y-92330355D01*
X139939158Y-92403720D01*
X139939158Y-92403722D01*
X139943383Y-92419494D01*
X139943384Y-92419496D01*
X139943385Y-92419499D01*
X139943386Y-92419500D01*
X139989530Y-92499424D01*
X140620505Y-93130399D01*
X140648281Y-93184914D01*
X140649500Y-93200401D01*
X140649500Y-93203287D01*
X140630593Y-93261478D01*
X140625320Y-93268117D01*
X140574623Y-93326626D01*
X140514834Y-93457543D01*
X140494353Y-93599997D01*
X140494353Y-93600002D01*
X140514834Y-93742456D01*
X140553987Y-93828187D01*
X140574623Y-93873373D01*
X140648908Y-93959103D01*
X140668873Y-93982144D01*
X140789942Y-94059950D01*
X140789947Y-94059953D01*
X140896403Y-94091211D01*
X140928035Y-94100499D01*
X140928036Y-94100499D01*
X140928039Y-94100500D01*
X140928041Y-94100500D01*
X141071959Y-94100500D01*
X141071961Y-94100500D01*
X141210053Y-94059953D01*
X141331128Y-93982143D01*
X141425377Y-93873373D01*
X141485165Y-93742457D01*
X141505647Y-93600000D01*
X141499018Y-93553894D01*
X141509451Y-93493607D01*
X141553328Y-93450964D01*
X141613891Y-93442256D01*
X141667014Y-93469802D01*
X145020504Y-96823292D01*
X145048281Y-96877809D01*
X145049500Y-96893296D01*
X145049500Y-98613447D01*
X145064657Y-98670014D01*
X145064656Y-98670014D01*
X145073385Y-98702589D01*
X145073386Y-98702592D01*
X145119530Y-98782516D01*
X145608451Y-99271437D01*
X146067510Y-99730496D01*
X146095287Y-99785013D01*
X146085716Y-99845445D01*
X146042451Y-99888710D01*
X145997506Y-99899500D01*
X139399500Y-99899500D01*
X139341309Y-99880593D01*
X139305345Y-99831093D01*
X139300500Y-99800500D01*
X139300500Y-91531163D01*
X139319407Y-91472972D01*
X139329490Y-91461165D01*
X139750498Y-91040157D01*
X139805013Y-91012382D01*
X139865445Y-91021953D01*
G37*
%TD.AperFunction*%
%TA.AperFunction,Conductor*%
G36*
X165002152Y-70500593D02*
G01*
X165387853Y-70517434D01*
X165396432Y-70518184D01*
X165777053Y-70568295D01*
X165785544Y-70569792D01*
X166160338Y-70652881D01*
X166168673Y-70655115D01*
X166534797Y-70770553D01*
X166542913Y-70773507D01*
X166897587Y-70920418D01*
X166905398Y-70924060D01*
X167245910Y-71101320D01*
X167253390Y-71105638D01*
X167577167Y-71311906D01*
X167584241Y-71316860D01*
X167888797Y-71550554D01*
X167895398Y-71556093D01*
X168178459Y-71815470D01*
X168184529Y-71821540D01*
X168443905Y-72104599D01*
X168449445Y-72111202D01*
X168683139Y-72415758D01*
X168688093Y-72422832D01*
X168894361Y-72746609D01*
X168898679Y-72754089D01*
X169075935Y-73094593D01*
X169079585Y-73102420D01*
X169226492Y-73457086D01*
X169229446Y-73465202D01*
X169344884Y-73831326D01*
X169347119Y-73839668D01*
X169430205Y-74214445D01*
X169431705Y-74222951D01*
X169481813Y-74603554D01*
X169482566Y-74612158D01*
X169499406Y-74997847D01*
X169499500Y-75002165D01*
X169499500Y-104997834D01*
X169499406Y-105002152D01*
X169482566Y-105387841D01*
X169481813Y-105396445D01*
X169431705Y-105777048D01*
X169430205Y-105785554D01*
X169347119Y-106160331D01*
X169344884Y-106168673D01*
X169229446Y-106534797D01*
X169226492Y-106542913D01*
X169079585Y-106897579D01*
X169075935Y-106905406D01*
X168898679Y-107245910D01*
X168894361Y-107253390D01*
X168688093Y-107577167D01*
X168683139Y-107584241D01*
X168449445Y-107888797D01*
X168443895Y-107895411D01*
X168184540Y-108178447D01*
X168178447Y-108184540D01*
X168119332Y-108238710D01*
X167895413Y-108443894D01*
X167888797Y-108449445D01*
X167584241Y-108683139D01*
X167577167Y-108688093D01*
X167253390Y-108894361D01*
X167245910Y-108898679D01*
X166905406Y-109075935D01*
X166897579Y-109079585D01*
X166542913Y-109226492D01*
X166534797Y-109229446D01*
X166168673Y-109344884D01*
X166160331Y-109347119D01*
X165785554Y-109430205D01*
X165777048Y-109431705D01*
X165396445Y-109481813D01*
X165387841Y-109482566D01*
X165002153Y-109499406D01*
X164997835Y-109499500D01*
X115002165Y-109499500D01*
X114997847Y-109499406D01*
X114612158Y-109482566D01*
X114603554Y-109481813D01*
X114222951Y-109431705D01*
X114214445Y-109430205D01*
X113839668Y-109347119D01*
X113831326Y-109344884D01*
X113465202Y-109229446D01*
X113457086Y-109226492D01*
X113102420Y-109079585D01*
X113094593Y-109075935D01*
X112754089Y-108898679D01*
X112746609Y-108894361D01*
X112422832Y-108688093D01*
X112415758Y-108683139D01*
X112111202Y-108449445D01*
X112104599Y-108443905D01*
X111821540Y-108184529D01*
X111815470Y-108178459D01*
X111556093Y-107895398D01*
X111550554Y-107888797D01*
X111316860Y-107584241D01*
X111311906Y-107577167D01*
X111105638Y-107253390D01*
X111101320Y-107245910D01*
X111068750Y-107183344D01*
X110924060Y-106905398D01*
X110920414Y-106897579D01*
X110909199Y-106870504D01*
X110773507Y-106542913D01*
X110770553Y-106534797D01*
X110655115Y-106168673D01*
X110652880Y-106160331D01*
X110569794Y-105785554D01*
X110568294Y-105777048D01*
X110555643Y-105680953D01*
X110518184Y-105396432D01*
X110517434Y-105387853D01*
X110500594Y-105002152D01*
X110500500Y-104997834D01*
X110500500Y-103600002D01*
X125094353Y-103600002D01*
X125114834Y-103742456D01*
X125164746Y-103851745D01*
X125174623Y-103873373D01*
X125201665Y-103904581D01*
X125268873Y-103982144D01*
X125389942Y-104059950D01*
X125389947Y-104059953D01*
X125496403Y-104091211D01*
X125528035Y-104100499D01*
X125528036Y-104100499D01*
X125528039Y-104100500D01*
X125528041Y-104100500D01*
X125671959Y-104100500D01*
X125671961Y-104100500D01*
X125810053Y-104059953D01*
X125931128Y-103982143D01*
X126025377Y-103873373D01*
X126085165Y-103742457D01*
X126105647Y-103600002D01*
X138294353Y-103600002D01*
X138314834Y-103742456D01*
X138364746Y-103851745D01*
X138374623Y-103873373D01*
X138401665Y-103904581D01*
X138468873Y-103982144D01*
X138589942Y-104059950D01*
X138589947Y-104059953D01*
X138696403Y-104091211D01*
X138728035Y-104100499D01*
X138728036Y-104100499D01*
X138728039Y-104100500D01*
X138728041Y-104100500D01*
X138871959Y-104100500D01*
X138871961Y-104100500D01*
X139010053Y-104059953D01*
X139131128Y-103982143D01*
X139225377Y-103873373D01*
X139285165Y-103742457D01*
X139305647Y-103600000D01*
X139285165Y-103457543D01*
X139225377Y-103326627D01*
X139131128Y-103217857D01*
X139131127Y-103217856D01*
X139131126Y-103217855D01*
X139010057Y-103140049D01*
X139010054Y-103140047D01*
X139010053Y-103140047D01*
X139010050Y-103140046D01*
X138871964Y-103099500D01*
X138871961Y-103099500D01*
X138728039Y-103099500D01*
X138728035Y-103099500D01*
X138589949Y-103140046D01*
X138589942Y-103140049D01*
X138468873Y-103217855D01*
X138374622Y-103326628D01*
X138314834Y-103457543D01*
X138294353Y-103599997D01*
X138294353Y-103600002D01*
X126105647Y-103600002D01*
X126105647Y-103600000D01*
X126085165Y-103457543D01*
X126025377Y-103326627D01*
X125931128Y-103217857D01*
X125931127Y-103217856D01*
X125931126Y-103217855D01*
X125810057Y-103140049D01*
X125810054Y-103140047D01*
X125810053Y-103140047D01*
X125810050Y-103140046D01*
X125671964Y-103099500D01*
X125671961Y-103099500D01*
X125528039Y-103099500D01*
X125528035Y-103099500D01*
X125389949Y-103140046D01*
X125389942Y-103140049D01*
X125268873Y-103217855D01*
X125174622Y-103326628D01*
X125114834Y-103457543D01*
X125094353Y-103599997D01*
X125094353Y-103600002D01*
X110500500Y-103600002D01*
X110500500Y-98483210D01*
X120599500Y-98483210D01*
X120626420Y-98618541D01*
X120626420Y-98618543D01*
X120679223Y-98746022D01*
X120679224Y-98746024D01*
X120679225Y-98746025D01*
X120755886Y-98860757D01*
X123039243Y-101144114D01*
X123153975Y-101220775D01*
X123153976Y-101220775D01*
X123153977Y-101220776D01*
X123185084Y-101233661D01*
X123281457Y-101273580D01*
X123308373Y-101278933D01*
X123308376Y-101278935D01*
X123308377Y-101278934D01*
X123416793Y-101300500D01*
X123416794Y-101300500D01*
X150368992Y-101300500D01*
X150368993Y-101300500D01*
X150504328Y-101273580D01*
X150631811Y-101220775D01*
X150695500Y-101178219D01*
X150754385Y-101161611D01*
X150811789Y-101182788D01*
X150845783Y-101233661D01*
X150849500Y-101260535D01*
X150849500Y-104913810D01*
X150830593Y-104972001D01*
X150820504Y-104983814D01*
X148583814Y-107220504D01*
X148529297Y-107248281D01*
X148513810Y-107249500D01*
X145545115Y-107249500D01*
X145486924Y-107230593D01*
X145455062Y-107191627D01*
X145425377Y-107126628D01*
X145425377Y-107126627D01*
X145331128Y-107017857D01*
X145331127Y-107017856D01*
X145331126Y-107017855D01*
X145210057Y-106940049D01*
X145210054Y-106940047D01*
X145210053Y-106940047D01*
X145210050Y-106940046D01*
X145071964Y-106899500D01*
X145071961Y-106899500D01*
X144928039Y-106899500D01*
X144928035Y-106899500D01*
X144789949Y-106940046D01*
X144789942Y-106940049D01*
X144668873Y-107017855D01*
X144574622Y-107126627D01*
X144548720Y-107183344D01*
X144507347Y-107228421D01*
X144447380Y-107240570D01*
X144391724Y-107215152D01*
X144388663Y-107212220D01*
X143711240Y-106534797D01*
X142895973Y-105719530D01*
X142816049Y-105673386D01*
X142726905Y-105649500D01*
X136353856Y-105649500D01*
X136264712Y-105673386D01*
X136184788Y-105719530D01*
X135033814Y-106870504D01*
X134979297Y-106898281D01*
X134963810Y-106899500D01*
X134928035Y-106899500D01*
X134789949Y-106940046D01*
X134789942Y-106940049D01*
X134668873Y-107017855D01*
X134574622Y-107126628D01*
X134514834Y-107257543D01*
X134494353Y-107399997D01*
X134494353Y-107400002D01*
X134514834Y-107542456D01*
X134532349Y-107580807D01*
X134574623Y-107673373D01*
X134668872Y-107782143D01*
X134668873Y-107782144D01*
X134789942Y-107859950D01*
X134789947Y-107859953D01*
X134888182Y-107888797D01*
X134928035Y-107900499D01*
X134928036Y-107900499D01*
X134928039Y-107900500D01*
X134928041Y-107900500D01*
X135071959Y-107900500D01*
X135071961Y-107900500D01*
X135210053Y-107859953D01*
X135331128Y-107782143D01*
X135425377Y-107673373D01*
X135485165Y-107542457D01*
X135485164Y-107542457D01*
X135485166Y-107542455D01*
X135502631Y-107420977D01*
X135529626Y-107366069D01*
X135530551Y-107365129D01*
X136516186Y-106379496D01*
X136570703Y-106351719D01*
X136586190Y-106350500D01*
X142494571Y-106350500D01*
X142552762Y-106369407D01*
X142564575Y-106379496D01*
X144265575Y-108080496D01*
X144293352Y-108135013D01*
X144283781Y-108195445D01*
X144240516Y-108238710D01*
X144195571Y-108249500D01*
X141386189Y-108249500D01*
X141327998Y-108230593D01*
X141316185Y-108220504D01*
X140530619Y-107434937D01*
X140512819Y-107400002D01*
X141994353Y-107400002D01*
X142014834Y-107542456D01*
X142032349Y-107580807D01*
X142074623Y-107673373D01*
X142168872Y-107782143D01*
X142168873Y-107782144D01*
X142289942Y-107859950D01*
X142289947Y-107859953D01*
X142388182Y-107888797D01*
X142428035Y-107900499D01*
X142428036Y-107900499D01*
X142428039Y-107900500D01*
X142428041Y-107900500D01*
X142571959Y-107900500D01*
X142571961Y-107900500D01*
X142710053Y-107859953D01*
X142831128Y-107782143D01*
X142925377Y-107673373D01*
X142985165Y-107542457D01*
X143002631Y-107420977D01*
X143005647Y-107400002D01*
X143005647Y-107399997D01*
X142985165Y-107257543D01*
X142925377Y-107126628D01*
X142925377Y-107126627D01*
X142831128Y-107017857D01*
X142831127Y-107017856D01*
X142831126Y-107017855D01*
X142710057Y-106940049D01*
X142710054Y-106940047D01*
X142710053Y-106940047D01*
X142710050Y-106940046D01*
X142571964Y-106899500D01*
X142571961Y-106899500D01*
X142428039Y-106899500D01*
X142428035Y-106899500D01*
X142289949Y-106940046D01*
X142289942Y-106940049D01*
X142168873Y-107017855D01*
X142074622Y-107126628D01*
X142014834Y-107257543D01*
X141994353Y-107399997D01*
X141994353Y-107400002D01*
X140512819Y-107400002D01*
X140502842Y-107380420D01*
X140502631Y-107379022D01*
X140485165Y-107257543D01*
X140425377Y-107126628D01*
X140425377Y-107126627D01*
X140331128Y-107017857D01*
X140331127Y-107017856D01*
X140331126Y-107017855D01*
X140210057Y-106940049D01*
X140210054Y-106940047D01*
X140210053Y-106940047D01*
X140210050Y-106940046D01*
X140071964Y-106899500D01*
X140071961Y-106899500D01*
X139928039Y-106899500D01*
X139928035Y-106899500D01*
X139789949Y-106940046D01*
X139789942Y-106940049D01*
X139668873Y-107017855D01*
X139574622Y-107126628D01*
X139514834Y-107257543D01*
X139494353Y-107399997D01*
X139494353Y-107400002D01*
X139514834Y-107542456D01*
X139532349Y-107580807D01*
X139574623Y-107673373D01*
X139668872Y-107782143D01*
X139668873Y-107782144D01*
X139789942Y-107859950D01*
X139789947Y-107859953D01*
X139888182Y-107888797D01*
X139928035Y-107900499D01*
X139928036Y-107900499D01*
X139928039Y-107900500D01*
X139963810Y-107900500D01*
X140022001Y-107919407D01*
X140033814Y-107929496D01*
X140919531Y-108815212D01*
X140919530Y-108815212D01*
X140984787Y-108880468D01*
X140984789Y-108880470D01*
X141008849Y-108894361D01*
X141064712Y-108926614D01*
X141153856Y-108950500D01*
X141153858Y-108950500D01*
X149160354Y-108950500D01*
X149160356Y-108950500D01*
X149249500Y-108926614D01*
X149329424Y-108880470D01*
X155280470Y-102929424D01*
X155326614Y-102849500D01*
X155326616Y-102849494D01*
X155330842Y-102833722D01*
X155330842Y-102833720D01*
X155350500Y-102760355D01*
X155350500Y-93053857D01*
X155350500Y-93053856D01*
X155326614Y-92964712D01*
X155280469Y-92884788D01*
X155280468Y-92884787D01*
X155215212Y-92819530D01*
X155215212Y-92819531D01*
X148395350Y-85999668D01*
X148315426Y-85953524D01*
X148315425Y-85953523D01*
X148315424Y-85953523D01*
X148300628Y-85949558D01*
X148300628Y-85949559D01*
X148226282Y-85929638D01*
X148226280Y-85929638D01*
X140270495Y-85929638D01*
X140212304Y-85910731D01*
X140200491Y-85900642D01*
X137289772Y-82989923D01*
X137261995Y-82935406D01*
X137261784Y-82934008D01*
X137244318Y-82812529D01*
X137239307Y-82801557D01*
X137184530Y-82681613D01*
X137090281Y-82572843D01*
X137090280Y-82572842D01*
X137090279Y-82572841D01*
X136969210Y-82495035D01*
X136969207Y-82495033D01*
X136969206Y-82495033D01*
X136960910Y-82492597D01*
X136831117Y-82454486D01*
X136831114Y-82454486D01*
X136687192Y-82454486D01*
X136687188Y-82454486D01*
X136549102Y-82495032D01*
X136549095Y-82495035D01*
X136428026Y-82572841D01*
X136333775Y-82681614D01*
X136273987Y-82812529D01*
X136253506Y-82954983D01*
X136253506Y-82954988D01*
X136273987Y-83097442D01*
X136333775Y-83228357D01*
X136333776Y-83228359D01*
X136362504Y-83261513D01*
X136428026Y-83337130D01*
X136543624Y-83411420D01*
X136549100Y-83414939D01*
X136655556Y-83446197D01*
X136687188Y-83455485D01*
X136687189Y-83455485D01*
X136687192Y-83455486D01*
X136722963Y-83455486D01*
X136781154Y-83474393D01*
X136792967Y-83484482D01*
X139569119Y-86260634D01*
X139596896Y-86315151D01*
X139587325Y-86375583D01*
X139544060Y-86418848D01*
X139499115Y-86429638D01*
X134073718Y-86429638D01*
X133984574Y-86453524D01*
X133984573Y-86453524D01*
X133984571Y-86453525D01*
X133904651Y-86499667D01*
X133533814Y-86870504D01*
X133479298Y-86898281D01*
X133463811Y-86899500D01*
X133428035Y-86899500D01*
X133289949Y-86940046D01*
X133289942Y-86940049D01*
X133168873Y-87017855D01*
X133074622Y-87126628D01*
X133014834Y-87257543D01*
X132994353Y-87399997D01*
X132994353Y-87400002D01*
X133014834Y-87542456D01*
X133020840Y-87555607D01*
X133074623Y-87673373D01*
X133168872Y-87782143D01*
X133168873Y-87782144D01*
X133259710Y-87840521D01*
X133289947Y-87859953D01*
X133396403Y-87891211D01*
X133428035Y-87900499D01*
X133428036Y-87900499D01*
X133428039Y-87900500D01*
X133428041Y-87900500D01*
X133571959Y-87900500D01*
X133571961Y-87900500D01*
X133710053Y-87859953D01*
X133831128Y-87782143D01*
X133925377Y-87673373D01*
X133985165Y-87542457D01*
X133985164Y-87542457D01*
X133985166Y-87542455D01*
X134002631Y-87420977D01*
X134029626Y-87366069D01*
X134030620Y-87365061D01*
X134236048Y-87159634D01*
X134290564Y-87131857D01*
X134306051Y-87130638D01*
X146370014Y-87130638D01*
X146428205Y-87149545D01*
X146464169Y-87199045D01*
X146464169Y-87260231D01*
X146428205Y-87309731D01*
X146423538Y-87312922D01*
X146418868Y-87315923D01*
X146413519Y-87320558D01*
X146412030Y-87318840D01*
X146368658Y-87344992D01*
X146346240Y-87347564D01*
X143848603Y-87347564D01*
X143820674Y-87355047D01*
X143764816Y-87370014D01*
X143759459Y-87371449D01*
X143759455Y-87371451D01*
X143679537Y-87417592D01*
X142294343Y-88802785D01*
X142239826Y-88830562D01*
X142179394Y-88820991D01*
X142136129Y-88777726D01*
X142129349Y-88760673D01*
X142128429Y-88757539D01*
X142068642Y-88626628D01*
X142068642Y-88626627D01*
X141974393Y-88517857D01*
X141974392Y-88517856D01*
X141974391Y-88517855D01*
X141853322Y-88440049D01*
X141853319Y-88440047D01*
X141853318Y-88440047D01*
X141853315Y-88440046D01*
X141715229Y-88399500D01*
X141715226Y-88399500D01*
X141571304Y-88399500D01*
X141571300Y-88399500D01*
X141433214Y-88440046D01*
X141433207Y-88440049D01*
X141312138Y-88517855D01*
X141217887Y-88626628D01*
X141158099Y-88757543D01*
X141140633Y-88879022D01*
X141113637Y-88933930D01*
X141112645Y-88934936D01*
X140989532Y-89058050D01*
X140989530Y-89058052D01*
X140989530Y-89058053D01*
X140945746Y-89133889D01*
X140943798Y-89137262D01*
X140943387Y-89137975D01*
X140943386Y-89137976D01*
X140919500Y-89227122D01*
X140919500Y-89475622D01*
X140900593Y-89533813D01*
X140851093Y-89569777D01*
X140789907Y-89569777D01*
X140750496Y-89545626D01*
X140431991Y-89227121D01*
X140074399Y-88869529D01*
X139994475Y-88823385D01*
X139905331Y-88799499D01*
X134503857Y-88799499D01*
X134423648Y-88820991D01*
X134414713Y-88823385D01*
X134334789Y-88869529D01*
X133433814Y-89770504D01*
X133379297Y-89798281D01*
X133363810Y-89799500D01*
X133328035Y-89799500D01*
X133189949Y-89840046D01*
X133189942Y-89840049D01*
X133068873Y-89917855D01*
X132974622Y-90026628D01*
X132914834Y-90157543D01*
X132894353Y-90299997D01*
X132894353Y-90300002D01*
X132914834Y-90442456D01*
X132974622Y-90573371D01*
X132974623Y-90573373D01*
X133068872Y-90682143D01*
X133068873Y-90682144D01*
X133189942Y-90759950D01*
X133189947Y-90759953D01*
X133296403Y-90791211D01*
X133328035Y-90800499D01*
X133328036Y-90800499D01*
X133328039Y-90800500D01*
X133328041Y-90800500D01*
X133471959Y-90800500D01*
X133471961Y-90800500D01*
X133610053Y-90759953D01*
X133731128Y-90682143D01*
X133825377Y-90573373D01*
X133885165Y-90442457D01*
X133885164Y-90442457D01*
X133885166Y-90442455D01*
X133902631Y-90320977D01*
X133929626Y-90266069D01*
X133930620Y-90265061D01*
X134666188Y-89529495D01*
X134720704Y-89501718D01*
X134736191Y-89500499D01*
X137762729Y-89500499D01*
X137820920Y-89519406D01*
X137856884Y-89568906D01*
X137856884Y-89630092D01*
X137832733Y-89669502D01*
X137469531Y-90032704D01*
X137423385Y-90112631D01*
X137399499Y-90201776D01*
X137399499Y-96163811D01*
X137380592Y-96222002D01*
X137370503Y-96233815D01*
X135969525Y-97634793D01*
X135948076Y-97671947D01*
X135948075Y-97671950D01*
X135923387Y-97714709D01*
X135923386Y-97714711D01*
X135923386Y-97714712D01*
X135920194Y-97726627D01*
X135899500Y-97803857D01*
X135899500Y-98604406D01*
X135880593Y-98662597D01*
X135831093Y-98698561D01*
X135828392Y-98699396D01*
X135689947Y-98740047D01*
X135689942Y-98740049D01*
X135568873Y-98817855D01*
X135474622Y-98926628D01*
X135414834Y-99057543D01*
X135394353Y-99199997D01*
X135394353Y-99200002D01*
X135414834Y-99342456D01*
X135418051Y-99349500D01*
X135474623Y-99473373D01*
X135568872Y-99582143D01*
X135568873Y-99582144D01*
X135689942Y-99659950D01*
X135689947Y-99659953D01*
X135796403Y-99691211D01*
X135828035Y-99700499D01*
X135828036Y-99700499D01*
X135828039Y-99700500D01*
X135828041Y-99700500D01*
X135971959Y-99700500D01*
X135971961Y-99700500D01*
X136110053Y-99659953D01*
X136231128Y-99582143D01*
X136325377Y-99473373D01*
X136385165Y-99342457D01*
X136402631Y-99220975D01*
X136429626Y-99166068D01*
X136430534Y-99165146D01*
X136530470Y-99065212D01*
X136576614Y-98985288D01*
X136600500Y-98896143D01*
X136600500Y-98803856D01*
X136600500Y-98036190D01*
X136619407Y-97977999D01*
X136629496Y-97966186D01*
X137730496Y-96865186D01*
X137785013Y-96837409D01*
X137845445Y-96846980D01*
X137888710Y-96890245D01*
X137899500Y-96935190D01*
X137899500Y-99800500D01*
X137880593Y-99858691D01*
X137831093Y-99894655D01*
X137800500Y-99899500D01*
X123816951Y-99899500D01*
X123758760Y-99880593D01*
X123746947Y-99870504D01*
X122491205Y-98614762D01*
X122463428Y-98560245D01*
X122472999Y-98499813D01*
X122507686Y-98461474D01*
X122631126Y-98382144D01*
X122631125Y-98382144D01*
X122631128Y-98382143D01*
X122725377Y-98273373D01*
X122785165Y-98142457D01*
X122805647Y-98000000D01*
X122804954Y-97995182D01*
X122785165Y-97857543D01*
X122760647Y-97803857D01*
X122725377Y-97726627D01*
X122715050Y-97714709D01*
X122674680Y-97668117D01*
X122650863Y-97611757D01*
X122650500Y-97603287D01*
X122650500Y-95105428D01*
X122669407Y-95047237D01*
X122679490Y-95035430D01*
X133693642Y-84021279D01*
X133739786Y-83941355D01*
X133747062Y-83914202D01*
X133763672Y-83852211D01*
X133763672Y-82199363D01*
X133782579Y-82141172D01*
X133792668Y-82129359D01*
X133842531Y-82079496D01*
X133897048Y-82051719D01*
X133912535Y-82050500D01*
X134796241Y-82050500D01*
X134854432Y-82069407D01*
X134863403Y-82077640D01*
X134863520Y-82077506D01*
X134868871Y-82082143D01*
X134960723Y-82141172D01*
X134989947Y-82159953D01*
X135096403Y-82191211D01*
X135128035Y-82200499D01*
X135128036Y-82200499D01*
X135128039Y-82200500D01*
X135128041Y-82200500D01*
X135271959Y-82200500D01*
X135271961Y-82200500D01*
X135410053Y-82159953D01*
X135531128Y-82082143D01*
X135625377Y-81973373D01*
X135685165Y-81842457D01*
X135691599Y-81797703D01*
X138599500Y-81797703D01*
X138614104Y-81852210D01*
X138623384Y-81886844D01*
X138623385Y-81886846D01*
X138623386Y-81886848D01*
X138669530Y-81966772D01*
X139153724Y-82450966D01*
X139578740Y-82875982D01*
X139606517Y-82930499D01*
X139606728Y-82931897D01*
X139624194Y-83053376D01*
X139683714Y-83183704D01*
X139683983Y-83184293D01*
X139750894Y-83261513D01*
X139778233Y-83293064D01*
X139899302Y-83370870D01*
X139899307Y-83370873D01*
X140005763Y-83402131D01*
X140037395Y-83411419D01*
X140037396Y-83411419D01*
X140037399Y-83411420D01*
X140037401Y-83411420D01*
X140181319Y-83411420D01*
X140181321Y-83411420D01*
X140319413Y-83370873D01*
X140440488Y-83293063D01*
X140534737Y-83184293D01*
X140594525Y-83053377D01*
X140608672Y-82954983D01*
X140615007Y-82910922D01*
X140615007Y-82910917D01*
X140599284Y-82801562D01*
X145494353Y-82801562D01*
X145514834Y-82944016D01*
X145574622Y-83074931D01*
X145574623Y-83074933D01*
X145594128Y-83097443D01*
X145668873Y-83183704D01*
X145669790Y-83184293D01*
X145789947Y-83261513D01*
X145896403Y-83292771D01*
X145928035Y-83302059D01*
X145928036Y-83302059D01*
X145928039Y-83302060D01*
X145963810Y-83302060D01*
X146022001Y-83320967D01*
X146033814Y-83331056D01*
X146382647Y-83679889D01*
X146410424Y-83734406D01*
X146411643Y-83749893D01*
X146411643Y-83938289D01*
X146392736Y-83996480D01*
X146387463Y-84003119D01*
X146336766Y-84061628D01*
X146276977Y-84192545D01*
X146256496Y-84334999D01*
X146256496Y-84335004D01*
X146276977Y-84477458D01*
X146336765Y-84608373D01*
X146336766Y-84608375D01*
X146431015Y-84717145D01*
X146431016Y-84717146D01*
X146552085Y-84794952D01*
X146552090Y-84794955D01*
X146658546Y-84826213D01*
X146690178Y-84835501D01*
X146690179Y-84835501D01*
X146690182Y-84835502D01*
X146690184Y-84835502D01*
X146834102Y-84835502D01*
X146834104Y-84835502D01*
X146972196Y-84794955D01*
X147093271Y-84717145D01*
X147187520Y-84608375D01*
X147247308Y-84477459D01*
X147267790Y-84335002D01*
X147247308Y-84192545D01*
X147187520Y-84061629D01*
X147183162Y-84056599D01*
X147136823Y-84003119D01*
X147113006Y-83946759D01*
X147112643Y-83938289D01*
X147112643Y-83517560D01*
X147103322Y-83482774D01*
X147088757Y-83428415D01*
X147042613Y-83348491D01*
X146530619Y-82836497D01*
X146502842Y-82781980D01*
X146502631Y-82780582D01*
X146485165Y-82659103D01*
X146425646Y-82528777D01*
X146425377Y-82528187D01*
X146331128Y-82419417D01*
X146331127Y-82419416D01*
X146331126Y-82419415D01*
X146210057Y-82341609D01*
X146210054Y-82341607D01*
X146210053Y-82341607D01*
X146210050Y-82341606D01*
X146071964Y-82301060D01*
X146071961Y-82301060D01*
X145928039Y-82301060D01*
X145928035Y-82301060D01*
X145789949Y-82341606D01*
X145789942Y-82341609D01*
X145668873Y-82419415D01*
X145574622Y-82528188D01*
X145514834Y-82659103D01*
X145494353Y-82801557D01*
X145494353Y-82801562D01*
X140599284Y-82801562D01*
X140594525Y-82768463D01*
X140534737Y-82637548D01*
X140534737Y-82637547D01*
X140440488Y-82528777D01*
X140440487Y-82528776D01*
X140440486Y-82528775D01*
X140319417Y-82450969D01*
X140319414Y-82450967D01*
X140319413Y-82450967D01*
X140319410Y-82450966D01*
X140181324Y-82410420D01*
X140181321Y-82410420D01*
X140145550Y-82410420D01*
X140087359Y-82391513D01*
X140075546Y-82381424D01*
X139329496Y-81635374D01*
X139301719Y-81580857D01*
X139300500Y-81565370D01*
X139300500Y-81403286D01*
X139319407Y-81345095D01*
X139368907Y-81309131D01*
X139427389Y-81308296D01*
X139528039Y-81337849D01*
X139528041Y-81337849D01*
X139671959Y-81337849D01*
X139671961Y-81337849D01*
X139810053Y-81297302D01*
X139931128Y-81219492D01*
X139931131Y-81219488D01*
X139936481Y-81214854D01*
X139937332Y-81215836D01*
X139983368Y-81188074D01*
X140005794Y-81185500D01*
X140496241Y-81185500D01*
X140554432Y-81204407D01*
X140563403Y-81212640D01*
X140563520Y-81212506D01*
X140568871Y-81217143D01*
X140689942Y-81294950D01*
X140689947Y-81294953D01*
X140767945Y-81317855D01*
X140828035Y-81335499D01*
X140828036Y-81335499D01*
X140828039Y-81335500D01*
X140828041Y-81335500D01*
X140971959Y-81335500D01*
X140971961Y-81335500D01*
X141110053Y-81294953D01*
X141231128Y-81217143D01*
X141325377Y-81108373D01*
X141385165Y-80977457D01*
X141405647Y-80835000D01*
X141385165Y-80692543D01*
X141325377Y-80561627D01*
X141231128Y-80452857D01*
X141231127Y-80452856D01*
X141231126Y-80452855D01*
X141110057Y-80375049D01*
X141110054Y-80375047D01*
X141110053Y-80375047D01*
X141110050Y-80375046D01*
X140971964Y-80334500D01*
X140971961Y-80334500D01*
X140828039Y-80334500D01*
X140828035Y-80334500D01*
X140689949Y-80375046D01*
X140689942Y-80375049D01*
X140568871Y-80452856D01*
X140563520Y-80457494D01*
X140562031Y-80455776D01*
X140518659Y-80481928D01*
X140496241Y-80484500D01*
X140081999Y-80484500D01*
X140023808Y-80465593D01*
X139987844Y-80416093D01*
X139987844Y-80354907D01*
X140007180Y-80320669D01*
X140013123Y-80313810D01*
X140025377Y-80299668D01*
X140085165Y-80168752D01*
X140105647Y-80026295D01*
X140085165Y-79883838D01*
X140025377Y-79752922D01*
X139931128Y-79644152D01*
X139931127Y-79644151D01*
X139931126Y-79644150D01*
X139810057Y-79566344D01*
X139810054Y-79566342D01*
X139810053Y-79566342D01*
X139810050Y-79566341D01*
X139671964Y-79525795D01*
X139671961Y-79525795D01*
X139528039Y-79525795D01*
X139528035Y-79525795D01*
X139389949Y-79566341D01*
X139389942Y-79566344D01*
X139268873Y-79644150D01*
X139174621Y-79752924D01*
X139111894Y-79890277D01*
X139109739Y-79889292D01*
X139091688Y-79919687D01*
X138669529Y-80341847D01*
X138631084Y-80408437D01*
X138631084Y-80408438D01*
X138627235Y-80415104D01*
X138623386Y-80421770D01*
X138599500Y-80510916D01*
X138599500Y-81797703D01*
X135691599Y-81797703D01*
X135697031Y-81759924D01*
X135705647Y-81700002D01*
X135705647Y-81699997D01*
X135685165Y-81557543D01*
X135625377Y-81426628D01*
X135625377Y-81426627D01*
X135531128Y-81317857D01*
X135531127Y-81317856D01*
X135531126Y-81317855D01*
X135410057Y-81240049D01*
X135410054Y-81240047D01*
X135410053Y-81240047D01*
X135410050Y-81240046D01*
X135271964Y-81199500D01*
X135271961Y-81199500D01*
X135235189Y-81199500D01*
X135176998Y-81180593D01*
X135141034Y-81131093D01*
X135141034Y-81069907D01*
X135165185Y-81030496D01*
X135177826Y-81017855D01*
X135480469Y-80715213D01*
X135526614Y-80635288D01*
X135536335Y-80599007D01*
X135550500Y-80546144D01*
X135550500Y-79096710D01*
X135569407Y-79038519D01*
X135574666Y-79031896D01*
X135625377Y-78973373D01*
X135685165Y-78842457D01*
X135705647Y-78700000D01*
X135685165Y-78557543D01*
X135625377Y-78426627D01*
X135531128Y-78317857D01*
X135531127Y-78317856D01*
X135531126Y-78317855D01*
X135410057Y-78240049D01*
X135410054Y-78240047D01*
X135410053Y-78240047D01*
X135410050Y-78240046D01*
X135271964Y-78199500D01*
X135271961Y-78199500D01*
X135128039Y-78199500D01*
X135128035Y-78199500D01*
X134989949Y-78240046D01*
X134989942Y-78240049D01*
X134868873Y-78317855D01*
X134774622Y-78426628D01*
X134714834Y-78557543D01*
X134694353Y-78699997D01*
X134694353Y-78700002D01*
X134714834Y-78842456D01*
X134774622Y-78973371D01*
X134774623Y-78973373D01*
X134825320Y-79031880D01*
X134849137Y-79088238D01*
X134849500Y-79096710D01*
X134849500Y-80313810D01*
X134830593Y-80372001D01*
X134820504Y-80383814D01*
X134383814Y-80820504D01*
X134329297Y-80848281D01*
X134313810Y-80849500D01*
X133473091Y-80849500D01*
X133402788Y-80868336D01*
X133402789Y-80868337D01*
X133383953Y-80873384D01*
X133383950Y-80873385D01*
X133383949Y-80873386D01*
X133350168Y-80892889D01*
X133304026Y-80919530D01*
X132632701Y-81590856D01*
X132591237Y-81662674D01*
X132586559Y-81670775D01*
X132562672Y-81759924D01*
X132562672Y-83412770D01*
X132543765Y-83470961D01*
X132533676Y-83482774D01*
X122525575Y-93490874D01*
X122471058Y-93518651D01*
X122427680Y-93515860D01*
X122371963Y-93499500D01*
X122371961Y-93499500D01*
X122228039Y-93499500D01*
X122228035Y-93499500D01*
X122127391Y-93529052D01*
X122066230Y-93527304D01*
X122017778Y-93489941D01*
X122000500Y-93434062D01*
X122000500Y-89018511D01*
X122019407Y-88960320D01*
X122029496Y-88948507D01*
X124146947Y-86831056D01*
X124201464Y-86803279D01*
X124216951Y-86802060D01*
X124268992Y-86802060D01*
X124268993Y-86802060D01*
X124404328Y-86775140D01*
X124531811Y-86722335D01*
X124646542Y-86645674D01*
X124744114Y-86548102D01*
X124820775Y-86433371D01*
X124873580Y-86305888D01*
X124900500Y-86170553D01*
X124900500Y-85432567D01*
X124873580Y-85297232D01*
X124820775Y-85169749D01*
X124820774Y-85169747D01*
X124820771Y-85169742D01*
X124744114Y-85055018D01*
X124646541Y-84957445D01*
X124531817Y-84880788D01*
X124531806Y-84880782D01*
X124404328Y-84827980D01*
X124268995Y-84801060D01*
X124268993Y-84801060D01*
X124131007Y-84801060D01*
X124131004Y-84801060D01*
X123995672Y-84827980D01*
X123995670Y-84827980D01*
X123868193Y-84880782D01*
X123868182Y-84880788D01*
X123753458Y-84957445D01*
X123655885Y-85055018D01*
X123579228Y-85169742D01*
X123579222Y-85169753D01*
X123526420Y-85297230D01*
X123526420Y-85297232D01*
X123499500Y-85432564D01*
X123499500Y-85456181D01*
X123480593Y-85514372D01*
X123470504Y-85526185D01*
X120755883Y-88240806D01*
X120679223Y-88355537D01*
X120626420Y-88483016D01*
X120626420Y-88483018D01*
X120608445Y-88573385D01*
X120599500Y-88618352D01*
X120599500Y-98483210D01*
X110500500Y-98483210D01*
X110500500Y-82501373D01*
X128312684Y-82501373D01*
X128333165Y-82643827D01*
X128392953Y-82774742D01*
X128392954Y-82774744D01*
X128416192Y-82801562D01*
X128487204Y-82883515D01*
X128598411Y-82954983D01*
X128608278Y-82961324D01*
X128714734Y-82992582D01*
X128746366Y-83001870D01*
X128746367Y-83001870D01*
X128746370Y-83001871D01*
X128746372Y-83001871D01*
X128890290Y-83001871D01*
X128890292Y-83001871D01*
X129028384Y-82961324D01*
X129149459Y-82883514D01*
X129243708Y-82774744D01*
X129303496Y-82643828D01*
X129320038Y-82528775D01*
X129320974Y-82522266D01*
X129347970Y-82467359D01*
X129348962Y-82466351D01*
X130035818Y-81779496D01*
X130090335Y-81751719D01*
X130105822Y-81750500D01*
X130896241Y-81750500D01*
X130954432Y-81769407D01*
X130963403Y-81777640D01*
X130963520Y-81777506D01*
X130968871Y-81782143D01*
X131077900Y-81852211D01*
X131089947Y-81859953D01*
X131181544Y-81886848D01*
X131228035Y-81900499D01*
X131228036Y-81900499D01*
X131228039Y-81900500D01*
X131228041Y-81900500D01*
X131371959Y-81900500D01*
X131371961Y-81900500D01*
X131510053Y-81859953D01*
X131631128Y-81782143D01*
X131725377Y-81673373D01*
X131785165Y-81542457D01*
X131805647Y-81400000D01*
X131796373Y-81335500D01*
X131785165Y-81257543D01*
X131753439Y-81188074D01*
X131725377Y-81126627D01*
X131631128Y-81017857D01*
X131631127Y-81017856D01*
X131631126Y-81017855D01*
X131510057Y-80940049D01*
X131510054Y-80940047D01*
X131510053Y-80940047D01*
X131510050Y-80940046D01*
X131371964Y-80899500D01*
X131371961Y-80899500D01*
X131228039Y-80899500D01*
X131228035Y-80899500D01*
X131089949Y-80940046D01*
X131089942Y-80940049D01*
X130968871Y-81017856D01*
X130963520Y-81022494D01*
X130962031Y-81020776D01*
X130918659Y-81046928D01*
X130896241Y-81049500D01*
X129965776Y-81049500D01*
X129873488Y-81049500D01*
X129797328Y-81069907D01*
X129784344Y-81073386D01*
X129704420Y-81119530D01*
X128852075Y-81971875D01*
X128797558Y-81999652D01*
X128782071Y-82000871D01*
X128746366Y-82000871D01*
X128608280Y-82041417D01*
X128608273Y-82041420D01*
X128487204Y-82119226D01*
X128392953Y-82227999D01*
X128333165Y-82358914D01*
X128312684Y-82501368D01*
X128312684Y-82501373D01*
X110500500Y-82501373D01*
X110500500Y-75002165D01*
X110500594Y-74997847D01*
X110510433Y-74772498D01*
X110517434Y-74612144D01*
X110518184Y-74603568D01*
X110568295Y-74222942D01*
X110569791Y-74214459D01*
X110652883Y-73839655D01*
X110655115Y-73831326D01*
X110770553Y-73465202D01*
X110773507Y-73457086D01*
X110785072Y-73429166D01*
X110920421Y-73102403D01*
X110924056Y-73094609D01*
X111101325Y-72754079D01*
X111105632Y-72746618D01*
X111311913Y-72422820D01*
X111316851Y-72415769D01*
X111550564Y-72111189D01*
X111556083Y-72104612D01*
X111815481Y-71821528D01*
X111821528Y-71815481D01*
X112104612Y-71556083D01*
X112111189Y-71550564D01*
X112415769Y-71316851D01*
X112422820Y-71311913D01*
X112746618Y-71105632D01*
X112754079Y-71101325D01*
X113094609Y-70924056D01*
X113102403Y-70920421D01*
X113457093Y-70773504D01*
X113465194Y-70770555D01*
X113831334Y-70655112D01*
X113839655Y-70652883D01*
X114214459Y-70569791D01*
X114222942Y-70568295D01*
X114603568Y-70518184D01*
X114612144Y-70517434D01*
X114997847Y-70500593D01*
X115002165Y-70500500D01*
X115065892Y-70500500D01*
X164934108Y-70500500D01*
X164997835Y-70500500D01*
X165002152Y-70500593D01*
G37*
%TD.AperFunction*%
%TD*%
M02*
