M48
; DRILL file {KiCad 8.0.1} date 2024-04-03T15:04:04+0200
; FORMAT={-:-/ absolute / inch / decimal}
; #@! TF.CreationDate,2024-04-03T15:04:04+02:00
; #@! TF.GenerationSoftware,Kicad,Pcbnew,8.0.1
; #@! TF.FileFunction,Plated,1,4,PTH
FMAT,2
INCH
; #@! TA.AperFunction,Plated,PTH,ViaDrill
T1C0.0118
%
G90
G05
T1
X4.7008Y-3.3228
X4.7008Y-3.4488
X4.7244Y-3.3228
X4.7244Y-3.4488
X4.748Y-3.3228
X4.748Y-3.4488
X4.815Y-3.7008
X4.815Y-3.8583
X4.8543Y-3.7874
X4.8701Y-3.4528
X4.874Y-4.0315
X4.878Y-3.9606
X4.8898Y-3.3662
X4.8898Y-3.3898
X4.8937Y-3.4528
X4.9173Y-3.4528
X4.9449Y-4.0787
X4.9606Y-3.0827
X5.0201Y-3.1894
X5.0716Y-3.2481
X5.1299Y-3.1772
X5.1693Y-3.2047
X5.2362Y-3.1339
X5.2362Y-3.1811
X5.2362Y-3.7913
X5.252Y-3.5551
X5.2559Y-3.4409
X5.2736Y-3.3268
X5.3091Y-3.3268
X5.315Y-4.2283
X5.3228Y-3.0984
X5.3228Y-3.2165
X5.3504Y-3.9055
X5.3842Y-3.2659
X5.3898Y-3.874
X5.3976Y-3.9606
X5.4134Y-4.2283
X5.4331Y-3.0827
X5.4606Y-3.563
X5.4646Y-4.0787
X5.4843Y-3.563
X5.4961Y-3.1506
X5.4961Y-3.1826
X5.4961Y-3.689
X5.5118Y-4.2283
X5.5161Y-3.2642
X5.5472Y-3.1825
X5.5512Y-3.685
X5.5765Y-3.5
X5.5889Y-3.529
X5.6102Y-4.2283
X5.6654Y-4.0354
X5.7087Y-4.2283
X5.748Y-3.2599
X5.748Y-3.7048
X5.752Y-3.0552
X5.752Y-3.1024
X5.752Y-3.5237
X5.752Y-3.5473
X5.7697Y-3.8266
X5.77Y-3.3713
X5.7756Y-3.7717
X5.7776Y-3.4527
X5.7776Y-3.8976
X5.778Y-3.3203
X5.8425Y-3.193
X5.8425Y-3.6379
X5.8622Y-3.2953
X5.8622Y-3.3426
X5.8622Y-3.7402
X5.8622Y-3.7875
X5.9173Y-3.9606
X5.9843Y-4.0787
X6.0315Y-3.4725
X6.0315Y-3.9174
X6.1378Y-3.4725
X6.1378Y-3.9174
M30
