%TF.GenerationSoftware,KiCad,Pcbnew,8.0.1*%
%TF.CreationDate,2024-04-03T15:04:06+02:00*%
%TF.ProjectId,shelfDriver_v1.0,7368656c-6644-4726-9976-65725f76312e,rev?*%
%TF.SameCoordinates,Original*%
%TF.FileFunction,Copper,L3,Inr*%
%TF.FilePolarity,Positive*%
%FSLAX46Y46*%
G04 Gerber Fmt 4.6, Leading zero omitted, Abs format (unit mm)*
G04 Created by KiCad (PCBNEW 8.0.1) date 2024-04-03 15:04:06*
%MOMM*%
%LPD*%
G01*
G04 APERTURE LIST*
%TA.AperFunction,ViaPad*%
%ADD10C,0.600000*%
%TD*%
G04 APERTURE END LIST*
D10*
%TO.N,GND*%
X146100000Y-77601560D03*
X148400000Y-81101560D03*
X137500000Y-107400000D03*
X123700000Y-87701560D03*
X133000000Y-96300000D03*
X133950000Y-84500000D03*
X120600000Y-84400000D03*
X120600000Y-87600000D03*
X127510400Y-81010400D03*
X130300000Y-80700000D03*
X153200000Y-99501560D03*
X155900000Y-88201560D03*
X155900000Y-99501560D03*
X119400000Y-87600000D03*
X119400000Y-84400000D03*
X146557124Y-85630138D03*
X120000000Y-87600000D03*
X124300000Y-87701560D03*
X120000000Y-84400000D03*
X143900000Y-102500000D03*
X134850000Y-84500000D03*
X146100000Y-89501560D03*
X146100000Y-90101560D03*
X133000000Y-80800000D03*
X146550000Y-97196729D03*
X148900000Y-96201560D03*
X123300000Y-96200000D03*
X148400000Y-92401560D03*
X153200000Y-88201560D03*
X138000000Y-78300000D03*
X139600000Y-93700000D03*
X148900000Y-84901560D03*
X148900000Y-83701560D03*
X146100000Y-78801560D03*
X123800000Y-102400000D03*
X124900000Y-87701560D03*
X136900000Y-98400000D03*
X133000000Y-79600000D03*
X126000000Y-78300000D03*
X148900000Y-95001560D03*
%TO.N,+3V3*%
X138700000Y-90500000D03*
X139300000Y-90500000D03*
X150300000Y-100600000D03*
X124200000Y-86101560D03*
X123900000Y-100600000D03*
X137100000Y-100600000D03*
X124200000Y-85501560D03*
%TO.N,Net-(U5-PWM)*%
X146762143Y-84335002D03*
X146000000Y-82801560D03*
%TO.N,Net-(U6-PWM)*%
X146700000Y-95800000D03*
X146000000Y-94101560D03*
%TO.N,Net-(U4-I)*%
X125600000Y-103600000D03*
%TO.N,Net-(U8-I)*%
X138800000Y-103600000D03*
%TO.N,Net-(U9-I)*%
X152000000Y-103600000D03*
%TO.N,/CommunicationLayer/RS485_A*%
X122300000Y-94000000D03*
X135200000Y-78700000D03*
%TO.N,/CommunicationLayer/RS485_B*%
X122300000Y-98000000D03*
X135200000Y-81700000D03*
%TO.N,/Brain/WarmWhite_Dim*%
X146749999Y-87698064D03*
X141956815Y-89635996D03*
%TO.N,/Brain/NaturalWhite_Dim*%
X141643265Y-88900000D03*
X146749999Y-98998064D03*
%TO.N,Net-(U7-~{Sleep})*%
X131300000Y-81400000D03*
X128818331Y-82501371D03*
%TO.N,/Brain/RS485_nRE*%
X140900000Y-80835000D03*
X139600000Y-80837349D03*
%TO.N,/Brain/RS485_DI*%
X140109360Y-82910920D03*
X139600000Y-80026295D03*
%TO.N,/Brain/TouchLeft*%
X135900000Y-99200000D03*
X141000000Y-93600000D03*
%TO.N,/Brain/SWTRACE*%
X133400000Y-90300000D03*
X145000000Y-107400000D03*
%TO.N,/Brain/SWDIO*%
X136759153Y-82954986D03*
X140000000Y-107400000D03*
%TO.N,/Brain/SWCLK*%
X133500000Y-87400000D03*
X135000000Y-107400000D03*
%TO.N,/Brain/NRST*%
X142500000Y-107400000D03*
%TD*%
%TA.AperFunction,Conductor*%
%TO.N,GND*%
G36*
X165002152Y-70500593D02*
G01*
X165387853Y-70517434D01*
X165396432Y-70518184D01*
X165777053Y-70568295D01*
X165785544Y-70569792D01*
X166160338Y-70652881D01*
X166168673Y-70655115D01*
X166534797Y-70770553D01*
X166542913Y-70773507D01*
X166897587Y-70920418D01*
X166905398Y-70924060D01*
X167245910Y-71101320D01*
X167253390Y-71105638D01*
X167577167Y-71311906D01*
X167584241Y-71316860D01*
X167888797Y-71550554D01*
X167895398Y-71556093D01*
X168178459Y-71815470D01*
X168184529Y-71821540D01*
X168443905Y-72104599D01*
X168449445Y-72111202D01*
X168683139Y-72415758D01*
X168688093Y-72422832D01*
X168894361Y-72746609D01*
X168898679Y-72754089D01*
X169075935Y-73094593D01*
X169079585Y-73102420D01*
X169226492Y-73457086D01*
X169229446Y-73465202D01*
X169344884Y-73831326D01*
X169347119Y-73839668D01*
X169430205Y-74214445D01*
X169431705Y-74222951D01*
X169481813Y-74603554D01*
X169482566Y-74612158D01*
X169499406Y-74997847D01*
X169499500Y-75002165D01*
X169499500Y-104997834D01*
X169499406Y-105002152D01*
X169482566Y-105387841D01*
X169481813Y-105396445D01*
X169431705Y-105777048D01*
X169430205Y-105785554D01*
X169347119Y-106160331D01*
X169344884Y-106168673D01*
X169229446Y-106534797D01*
X169226492Y-106542913D01*
X169079585Y-106897579D01*
X169075935Y-106905406D01*
X168898679Y-107245910D01*
X168894361Y-107253390D01*
X168688093Y-107577167D01*
X168683139Y-107584241D01*
X168449445Y-107888797D01*
X168443895Y-107895411D01*
X168184540Y-108178447D01*
X168178447Y-108184540D01*
X168162727Y-108198946D01*
X167895413Y-108443894D01*
X167888797Y-108449445D01*
X167584241Y-108683139D01*
X167577167Y-108688093D01*
X167253390Y-108894361D01*
X167245910Y-108898679D01*
X166905406Y-109075935D01*
X166897579Y-109079585D01*
X166542913Y-109226492D01*
X166534797Y-109229446D01*
X166168673Y-109344884D01*
X166160331Y-109347119D01*
X165785554Y-109430205D01*
X165777048Y-109431705D01*
X165396445Y-109481813D01*
X165387841Y-109482566D01*
X165002153Y-109499406D01*
X164997835Y-109499500D01*
X115002165Y-109499500D01*
X114997847Y-109499406D01*
X114612158Y-109482566D01*
X114603554Y-109481813D01*
X114222951Y-109431705D01*
X114214445Y-109430205D01*
X113839668Y-109347119D01*
X113831326Y-109344884D01*
X113465202Y-109229446D01*
X113457086Y-109226492D01*
X113102420Y-109079585D01*
X113094593Y-109075935D01*
X112754089Y-108898679D01*
X112746609Y-108894361D01*
X112422832Y-108688093D01*
X112415758Y-108683139D01*
X112111202Y-108449445D01*
X112104599Y-108443905D01*
X111821540Y-108184529D01*
X111815470Y-108178459D01*
X111556093Y-107895398D01*
X111550554Y-107888797D01*
X111316860Y-107584241D01*
X111311906Y-107577167D01*
X111199040Y-107400002D01*
X134494353Y-107400002D01*
X134514834Y-107542456D01*
X134532349Y-107580807D01*
X134574623Y-107673373D01*
X134668872Y-107782143D01*
X134668873Y-107782144D01*
X134789942Y-107859950D01*
X134789947Y-107859953D01*
X134888182Y-107888797D01*
X134928035Y-107900499D01*
X134928036Y-107900499D01*
X134928039Y-107900500D01*
X134928041Y-107900500D01*
X135071959Y-107900500D01*
X135071961Y-107900500D01*
X135210053Y-107859953D01*
X135331128Y-107782143D01*
X135425377Y-107673373D01*
X135485165Y-107542457D01*
X135491992Y-107494971D01*
X135505647Y-107400002D01*
X139494353Y-107400002D01*
X139514834Y-107542456D01*
X139532349Y-107580807D01*
X139574623Y-107673373D01*
X139668872Y-107782143D01*
X139668873Y-107782144D01*
X139789942Y-107859950D01*
X139789947Y-107859953D01*
X139888182Y-107888797D01*
X139928035Y-107900499D01*
X139928036Y-107900499D01*
X139928039Y-107900500D01*
X139928041Y-107900500D01*
X140071959Y-107900500D01*
X140071961Y-107900500D01*
X140210053Y-107859953D01*
X140331128Y-107782143D01*
X140425377Y-107673373D01*
X140485165Y-107542457D01*
X140491992Y-107494971D01*
X140505647Y-107400002D01*
X141994353Y-107400002D01*
X142014834Y-107542456D01*
X142032349Y-107580807D01*
X142074623Y-107673373D01*
X142168872Y-107782143D01*
X142168873Y-107782144D01*
X142289942Y-107859950D01*
X142289947Y-107859953D01*
X142388182Y-107888797D01*
X142428035Y-107900499D01*
X142428036Y-107900499D01*
X142428039Y-107900500D01*
X142428041Y-107900500D01*
X142571959Y-107900500D01*
X142571961Y-107900500D01*
X142710053Y-107859953D01*
X142831128Y-107782143D01*
X142925377Y-107673373D01*
X142985165Y-107542457D01*
X142991992Y-107494971D01*
X143005647Y-107400002D01*
X144494353Y-107400002D01*
X144514834Y-107542456D01*
X144532349Y-107580807D01*
X144574623Y-107673373D01*
X144668872Y-107782143D01*
X144668873Y-107782144D01*
X144789942Y-107859950D01*
X144789947Y-107859953D01*
X144888182Y-107888797D01*
X144928035Y-107900499D01*
X144928036Y-107900499D01*
X144928039Y-107900500D01*
X144928041Y-107900500D01*
X145071959Y-107900500D01*
X145071961Y-107900500D01*
X145210053Y-107859953D01*
X145331128Y-107782143D01*
X145425377Y-107673373D01*
X145485165Y-107542457D01*
X145491992Y-107494971D01*
X145505647Y-107400002D01*
X145505647Y-107399997D01*
X145485165Y-107257543D01*
X145425377Y-107126628D01*
X145425377Y-107126627D01*
X145331128Y-107017857D01*
X145331127Y-107017856D01*
X145331126Y-107017855D01*
X145210057Y-106940049D01*
X145210054Y-106940047D01*
X145210053Y-106940047D01*
X145210050Y-106940046D01*
X145071964Y-106899500D01*
X145071961Y-106899500D01*
X144928039Y-106899500D01*
X144928035Y-106899500D01*
X144789949Y-106940046D01*
X144789942Y-106940049D01*
X144668873Y-107017855D01*
X144574622Y-107126628D01*
X144514834Y-107257543D01*
X144494353Y-107399997D01*
X144494353Y-107400002D01*
X143005647Y-107400002D01*
X143005647Y-107399997D01*
X142985165Y-107257543D01*
X142925377Y-107126628D01*
X142925377Y-107126627D01*
X142831128Y-107017857D01*
X142831127Y-107017856D01*
X142831126Y-107017855D01*
X142710057Y-106940049D01*
X142710054Y-106940047D01*
X142710053Y-106940047D01*
X142710050Y-106940046D01*
X142571964Y-106899500D01*
X142571961Y-106899500D01*
X142428039Y-106899500D01*
X142428035Y-106899500D01*
X142289949Y-106940046D01*
X142289942Y-106940049D01*
X142168873Y-107017855D01*
X142074622Y-107126628D01*
X142014834Y-107257543D01*
X141994353Y-107399997D01*
X141994353Y-107400002D01*
X140505647Y-107400002D01*
X140505647Y-107399997D01*
X140485165Y-107257543D01*
X140425377Y-107126628D01*
X140425377Y-107126627D01*
X140331128Y-107017857D01*
X140331127Y-107017856D01*
X140331126Y-107017855D01*
X140210057Y-106940049D01*
X140210054Y-106940047D01*
X140210053Y-106940047D01*
X140210050Y-106940046D01*
X140071964Y-106899500D01*
X140071961Y-106899500D01*
X139928039Y-106899500D01*
X139928035Y-106899500D01*
X139789949Y-106940046D01*
X139789942Y-106940049D01*
X139668873Y-107017855D01*
X139574622Y-107126628D01*
X139514834Y-107257543D01*
X139494353Y-107399997D01*
X139494353Y-107400002D01*
X135505647Y-107400002D01*
X135505647Y-107399997D01*
X135485165Y-107257543D01*
X135425377Y-107126628D01*
X135425377Y-107126627D01*
X135331128Y-107017857D01*
X135331127Y-107017856D01*
X135331126Y-107017855D01*
X135210057Y-106940049D01*
X135210054Y-106940047D01*
X135210053Y-106940047D01*
X135210050Y-106940046D01*
X135071964Y-106899500D01*
X135071961Y-106899500D01*
X134928039Y-106899500D01*
X134928035Y-106899500D01*
X134789949Y-106940046D01*
X134789942Y-106940049D01*
X134668873Y-107017855D01*
X134574622Y-107126628D01*
X134514834Y-107257543D01*
X134494353Y-107399997D01*
X134494353Y-107400002D01*
X111199040Y-107400002D01*
X111105638Y-107253390D01*
X111101320Y-107245910D01*
X110924060Y-106905398D01*
X110920414Y-106897579D01*
X110773507Y-106542913D01*
X110770553Y-106534797D01*
X110655115Y-106168673D01*
X110652880Y-106160331D01*
X110569794Y-105785554D01*
X110568294Y-105777048D01*
X110555643Y-105680953D01*
X110518184Y-105396432D01*
X110517434Y-105387853D01*
X110500594Y-105002152D01*
X110500500Y-104997834D01*
X110500500Y-103600002D01*
X125094353Y-103600002D01*
X125114834Y-103742456D01*
X125174622Y-103873371D01*
X125174623Y-103873373D01*
X125268872Y-103982143D01*
X125268873Y-103982144D01*
X125389942Y-104059950D01*
X125389947Y-104059953D01*
X125496403Y-104091211D01*
X125528035Y-104100499D01*
X125528036Y-104100499D01*
X125528039Y-104100500D01*
X125528041Y-104100500D01*
X125671959Y-104100500D01*
X125671961Y-104100500D01*
X125810053Y-104059953D01*
X125931128Y-103982143D01*
X126025377Y-103873373D01*
X126085165Y-103742457D01*
X126105647Y-103600002D01*
X138294353Y-103600002D01*
X138314834Y-103742456D01*
X138374622Y-103873371D01*
X138374623Y-103873373D01*
X138468872Y-103982143D01*
X138468873Y-103982144D01*
X138589942Y-104059950D01*
X138589947Y-104059953D01*
X138696403Y-104091211D01*
X138728035Y-104100499D01*
X138728036Y-104100499D01*
X138728039Y-104100500D01*
X138728041Y-104100500D01*
X138871959Y-104100500D01*
X138871961Y-104100500D01*
X139010053Y-104059953D01*
X139131128Y-103982143D01*
X139225377Y-103873373D01*
X139285165Y-103742457D01*
X139305647Y-103600002D01*
X151494353Y-103600002D01*
X151514834Y-103742456D01*
X151574622Y-103873371D01*
X151574623Y-103873373D01*
X151668872Y-103982143D01*
X151668873Y-103982144D01*
X151789942Y-104059950D01*
X151789947Y-104059953D01*
X151896403Y-104091211D01*
X151928035Y-104100499D01*
X151928036Y-104100499D01*
X151928039Y-104100500D01*
X151928041Y-104100500D01*
X152071959Y-104100500D01*
X152071961Y-104100500D01*
X152210053Y-104059953D01*
X152331128Y-103982143D01*
X152425377Y-103873373D01*
X152485165Y-103742457D01*
X152505647Y-103600000D01*
X152485165Y-103457543D01*
X152425377Y-103326627D01*
X152331128Y-103217857D01*
X152331127Y-103217856D01*
X152331126Y-103217855D01*
X152210057Y-103140049D01*
X152210054Y-103140047D01*
X152210053Y-103140047D01*
X152210050Y-103140046D01*
X152071964Y-103099500D01*
X152071961Y-103099500D01*
X151928039Y-103099500D01*
X151928035Y-103099500D01*
X151789949Y-103140046D01*
X151789942Y-103140049D01*
X151668873Y-103217855D01*
X151574622Y-103326628D01*
X151514834Y-103457543D01*
X151494353Y-103599997D01*
X151494353Y-103600002D01*
X139305647Y-103600002D01*
X139305647Y-103600000D01*
X139285165Y-103457543D01*
X139225377Y-103326627D01*
X139131128Y-103217857D01*
X139131127Y-103217856D01*
X139131126Y-103217855D01*
X139010057Y-103140049D01*
X139010054Y-103140047D01*
X139010053Y-103140047D01*
X139010050Y-103140046D01*
X138871964Y-103099500D01*
X138871961Y-103099500D01*
X138728039Y-103099500D01*
X138728035Y-103099500D01*
X138589949Y-103140046D01*
X138589942Y-103140049D01*
X138468873Y-103217855D01*
X138374622Y-103326628D01*
X138314834Y-103457543D01*
X138294353Y-103599997D01*
X138294353Y-103600002D01*
X126105647Y-103600002D01*
X126105647Y-103600000D01*
X126085165Y-103457543D01*
X126025377Y-103326627D01*
X125931128Y-103217857D01*
X125931127Y-103217856D01*
X125931126Y-103217855D01*
X125810057Y-103140049D01*
X125810054Y-103140047D01*
X125810053Y-103140047D01*
X125810050Y-103140046D01*
X125671964Y-103099500D01*
X125671961Y-103099500D01*
X125528039Y-103099500D01*
X125528035Y-103099500D01*
X125389949Y-103140046D01*
X125389942Y-103140049D01*
X125268873Y-103217855D01*
X125174622Y-103326628D01*
X125114834Y-103457543D01*
X125094353Y-103599997D01*
X125094353Y-103600002D01*
X110500500Y-103600002D01*
X110500500Y-100600002D01*
X123394353Y-100600002D01*
X123414834Y-100742456D01*
X123474622Y-100873371D01*
X123474623Y-100873373D01*
X123568872Y-100982143D01*
X123568873Y-100982144D01*
X123689942Y-101059950D01*
X123689947Y-101059953D01*
X123796403Y-101091211D01*
X123828035Y-101100499D01*
X123828036Y-101100499D01*
X123828039Y-101100500D01*
X123828041Y-101100500D01*
X123971959Y-101100500D01*
X123971961Y-101100500D01*
X124110053Y-101059953D01*
X124231128Y-100982143D01*
X124325377Y-100873373D01*
X124385165Y-100742457D01*
X124405647Y-100600002D01*
X136594353Y-100600002D01*
X136614834Y-100742456D01*
X136674622Y-100873371D01*
X136674623Y-100873373D01*
X136768872Y-100982143D01*
X136768873Y-100982144D01*
X136889942Y-101059950D01*
X136889947Y-101059953D01*
X136996403Y-101091211D01*
X137028035Y-101100499D01*
X137028036Y-101100499D01*
X137028039Y-101100500D01*
X137028041Y-101100500D01*
X137171959Y-101100500D01*
X137171961Y-101100500D01*
X137310053Y-101059953D01*
X137431128Y-100982143D01*
X137525377Y-100873373D01*
X137585165Y-100742457D01*
X137605647Y-100600002D01*
X149794353Y-100600002D01*
X149814834Y-100742456D01*
X149874622Y-100873371D01*
X149874623Y-100873373D01*
X149968872Y-100982143D01*
X149968873Y-100982144D01*
X150089942Y-101059950D01*
X150089947Y-101059953D01*
X150196403Y-101091211D01*
X150228035Y-101100499D01*
X150228036Y-101100499D01*
X150228039Y-101100500D01*
X150228041Y-101100500D01*
X150371959Y-101100500D01*
X150371961Y-101100500D01*
X150510053Y-101059953D01*
X150631128Y-100982143D01*
X150725377Y-100873373D01*
X150785165Y-100742457D01*
X150805647Y-100600000D01*
X150785165Y-100457543D01*
X150725377Y-100326627D01*
X150631128Y-100217857D01*
X150631127Y-100217856D01*
X150631126Y-100217855D01*
X150510057Y-100140049D01*
X150510054Y-100140047D01*
X150510053Y-100140047D01*
X150510050Y-100140046D01*
X150371964Y-100099500D01*
X150371961Y-100099500D01*
X150228039Y-100099500D01*
X150228035Y-100099500D01*
X150089949Y-100140046D01*
X150089942Y-100140049D01*
X149968873Y-100217855D01*
X149874622Y-100326628D01*
X149814834Y-100457543D01*
X149794353Y-100599997D01*
X149794353Y-100600002D01*
X137605647Y-100600002D01*
X137605647Y-100600000D01*
X137585165Y-100457543D01*
X137525377Y-100326627D01*
X137431128Y-100217857D01*
X137431127Y-100217856D01*
X137431126Y-100217855D01*
X137310057Y-100140049D01*
X137310054Y-100140047D01*
X137310053Y-100140047D01*
X137310050Y-100140046D01*
X137171964Y-100099500D01*
X137171961Y-100099500D01*
X137028039Y-100099500D01*
X137028035Y-100099500D01*
X136889949Y-100140046D01*
X136889942Y-100140049D01*
X136768873Y-100217855D01*
X136674622Y-100326628D01*
X136614834Y-100457543D01*
X136594353Y-100599997D01*
X136594353Y-100600002D01*
X124405647Y-100600002D01*
X124405647Y-100600000D01*
X124385165Y-100457543D01*
X124325377Y-100326627D01*
X124231128Y-100217857D01*
X124231127Y-100217856D01*
X124231126Y-100217855D01*
X124110057Y-100140049D01*
X124110054Y-100140047D01*
X124110053Y-100140047D01*
X124110050Y-100140046D01*
X123971964Y-100099500D01*
X123971961Y-100099500D01*
X123828039Y-100099500D01*
X123828035Y-100099500D01*
X123689949Y-100140046D01*
X123689942Y-100140049D01*
X123568873Y-100217855D01*
X123474622Y-100326628D01*
X123414834Y-100457543D01*
X123394353Y-100599997D01*
X123394353Y-100600002D01*
X110500500Y-100600002D01*
X110500500Y-99200002D01*
X135394353Y-99200002D01*
X135414834Y-99342456D01*
X135432075Y-99380207D01*
X135474623Y-99473373D01*
X135568872Y-99582143D01*
X135568873Y-99582144D01*
X135689942Y-99659950D01*
X135689947Y-99659953D01*
X135796403Y-99691211D01*
X135828035Y-99700499D01*
X135828036Y-99700499D01*
X135828039Y-99700500D01*
X135828041Y-99700500D01*
X135971959Y-99700500D01*
X135971961Y-99700500D01*
X136110053Y-99659953D01*
X136231128Y-99582143D01*
X136325377Y-99473373D01*
X136385165Y-99342457D01*
X136405647Y-99200000D01*
X136397095Y-99140521D01*
X136385165Y-99057543D01*
X136358002Y-98998066D01*
X146244352Y-98998066D01*
X146264833Y-99140520D01*
X146291996Y-99199997D01*
X146324622Y-99271437D01*
X146386160Y-99342456D01*
X146418872Y-99380208D01*
X146539941Y-99458014D01*
X146539946Y-99458017D01*
X146646402Y-99489275D01*
X146678034Y-99498563D01*
X146678035Y-99498563D01*
X146678038Y-99498564D01*
X146678040Y-99498564D01*
X146821958Y-99498564D01*
X146821960Y-99498564D01*
X146960052Y-99458017D01*
X147081127Y-99380207D01*
X147175376Y-99271437D01*
X147235164Y-99140521D01*
X147255646Y-98998064D01*
X147235164Y-98855607D01*
X147175376Y-98724691D01*
X147081127Y-98615921D01*
X147081126Y-98615920D01*
X147081125Y-98615919D01*
X146960056Y-98538113D01*
X146960053Y-98538111D01*
X146960052Y-98538111D01*
X146960049Y-98538110D01*
X146821963Y-98497564D01*
X146821960Y-98497564D01*
X146678038Y-98497564D01*
X146678034Y-98497564D01*
X146539948Y-98538110D01*
X146539941Y-98538113D01*
X146418872Y-98615919D01*
X146324621Y-98724692D01*
X146264833Y-98855607D01*
X146244352Y-98998061D01*
X146244352Y-98998066D01*
X136358002Y-98998066D01*
X136325377Y-98926627D01*
X136231128Y-98817857D01*
X136231127Y-98817856D01*
X136231126Y-98817855D01*
X136110057Y-98740049D01*
X136110054Y-98740047D01*
X136110053Y-98740047D01*
X136110050Y-98740046D01*
X135971964Y-98699500D01*
X135971961Y-98699500D01*
X135828039Y-98699500D01*
X135828035Y-98699500D01*
X135689949Y-98740046D01*
X135689942Y-98740049D01*
X135568873Y-98817855D01*
X135474622Y-98926628D01*
X135414834Y-99057543D01*
X135394353Y-99199997D01*
X135394353Y-99200002D01*
X110500500Y-99200002D01*
X110500500Y-98000002D01*
X121794353Y-98000002D01*
X121814834Y-98142456D01*
X121874622Y-98273371D01*
X121874623Y-98273373D01*
X121968872Y-98382143D01*
X121968873Y-98382144D01*
X122089942Y-98459950D01*
X122089947Y-98459953D01*
X122196403Y-98491211D01*
X122228035Y-98500499D01*
X122228036Y-98500499D01*
X122228039Y-98500500D01*
X122228041Y-98500500D01*
X122371959Y-98500500D01*
X122371961Y-98500500D01*
X122510053Y-98459953D01*
X122631128Y-98382143D01*
X122725377Y-98273373D01*
X122785165Y-98142457D01*
X122805647Y-98000000D01*
X122785165Y-97857543D01*
X122725377Y-97726627D01*
X122631128Y-97617857D01*
X122631127Y-97617856D01*
X122631126Y-97617855D01*
X122510057Y-97540049D01*
X122510054Y-97540047D01*
X122510053Y-97540047D01*
X122510050Y-97540046D01*
X122371964Y-97499500D01*
X122371961Y-97499500D01*
X122228039Y-97499500D01*
X122228035Y-97499500D01*
X122089949Y-97540046D01*
X122089942Y-97540049D01*
X121968873Y-97617855D01*
X121874622Y-97726628D01*
X121814834Y-97857543D01*
X121794353Y-97999997D01*
X121794353Y-98000002D01*
X110500500Y-98000002D01*
X110500500Y-95800002D01*
X146194353Y-95800002D01*
X146214834Y-95942456D01*
X146274622Y-96073371D01*
X146274623Y-96073373D01*
X146368872Y-96182143D01*
X146368873Y-96182144D01*
X146489942Y-96259950D01*
X146489947Y-96259953D01*
X146596403Y-96291211D01*
X146628035Y-96300499D01*
X146628036Y-96300499D01*
X146628039Y-96300500D01*
X146628041Y-96300500D01*
X146771959Y-96300500D01*
X146771961Y-96300500D01*
X146910053Y-96259953D01*
X147031128Y-96182143D01*
X147125377Y-96073373D01*
X147185165Y-95942457D01*
X147205647Y-95800000D01*
X147185165Y-95657543D01*
X147125377Y-95526627D01*
X147031128Y-95417857D01*
X147031127Y-95417856D01*
X147031126Y-95417855D01*
X146910057Y-95340049D01*
X146910054Y-95340047D01*
X146910053Y-95340047D01*
X146910050Y-95340046D01*
X146771964Y-95299500D01*
X146771961Y-95299500D01*
X146628039Y-95299500D01*
X146628035Y-95299500D01*
X146489949Y-95340046D01*
X146489942Y-95340049D01*
X146368873Y-95417855D01*
X146274622Y-95526628D01*
X146214834Y-95657543D01*
X146194353Y-95799997D01*
X146194353Y-95800002D01*
X110500500Y-95800002D01*
X110500500Y-94000002D01*
X121794353Y-94000002D01*
X121814834Y-94142456D01*
X121861216Y-94244016D01*
X121874623Y-94273373D01*
X121962623Y-94374931D01*
X121968873Y-94382144D01*
X122089942Y-94459950D01*
X122089947Y-94459953D01*
X122196403Y-94491211D01*
X122228035Y-94500499D01*
X122228036Y-94500499D01*
X122228039Y-94500500D01*
X122228041Y-94500500D01*
X122371959Y-94500500D01*
X122371961Y-94500500D01*
X122510053Y-94459953D01*
X122631128Y-94382143D01*
X122725377Y-94273373D01*
X122785165Y-94142457D01*
X122791045Y-94101562D01*
X145494353Y-94101562D01*
X145514834Y-94244016D01*
X145574622Y-94374931D01*
X145574623Y-94374933D01*
X145648290Y-94459950D01*
X145668873Y-94483704D01*
X145789942Y-94561510D01*
X145789947Y-94561513D01*
X145896403Y-94592771D01*
X145928035Y-94602059D01*
X145928036Y-94602059D01*
X145928039Y-94602060D01*
X145928041Y-94602060D01*
X146071959Y-94602060D01*
X146071961Y-94602060D01*
X146210053Y-94561513D01*
X146331128Y-94483703D01*
X146425377Y-94374933D01*
X146485165Y-94244017D01*
X146505647Y-94101560D01*
X146505494Y-94100499D01*
X146485165Y-93959103D01*
X146446012Y-93873371D01*
X146425377Y-93828187D01*
X146331128Y-93719417D01*
X146331127Y-93719416D01*
X146331126Y-93719415D01*
X146210057Y-93641609D01*
X146210054Y-93641607D01*
X146210053Y-93641607D01*
X146210050Y-93641606D01*
X146071964Y-93601060D01*
X146071961Y-93601060D01*
X145928039Y-93601060D01*
X145928035Y-93601060D01*
X145789949Y-93641606D01*
X145789942Y-93641609D01*
X145668873Y-93719415D01*
X145574622Y-93828188D01*
X145514834Y-93959103D01*
X145494353Y-94101557D01*
X145494353Y-94101562D01*
X122791045Y-94101562D01*
X122805647Y-94000000D01*
X122785165Y-93857543D01*
X122725377Y-93726627D01*
X122631128Y-93617857D01*
X122631127Y-93617856D01*
X122631126Y-93617855D01*
X122603346Y-93600002D01*
X140494353Y-93600002D01*
X140514834Y-93742456D01*
X140574622Y-93873371D01*
X140574623Y-93873373D01*
X140648908Y-93959103D01*
X140668873Y-93982144D01*
X140696653Y-93999997D01*
X140789947Y-94059953D01*
X140896403Y-94091211D01*
X140928035Y-94100499D01*
X140928036Y-94100499D01*
X140928039Y-94100500D01*
X140928041Y-94100500D01*
X141071959Y-94100500D01*
X141071961Y-94100500D01*
X141210053Y-94059953D01*
X141331128Y-93982143D01*
X141425377Y-93873373D01*
X141485165Y-93742457D01*
X141505647Y-93600000D01*
X141497027Y-93540049D01*
X141485165Y-93457543D01*
X141425377Y-93326628D01*
X141425377Y-93326627D01*
X141331128Y-93217857D01*
X141331127Y-93217856D01*
X141331126Y-93217855D01*
X141210057Y-93140049D01*
X141210054Y-93140047D01*
X141210053Y-93140047D01*
X141210050Y-93140046D01*
X141071964Y-93099500D01*
X141071961Y-93099500D01*
X140928039Y-93099500D01*
X140928035Y-93099500D01*
X140789949Y-93140046D01*
X140789942Y-93140049D01*
X140668873Y-93217855D01*
X140574622Y-93326628D01*
X140514834Y-93457543D01*
X140494353Y-93599997D01*
X140494353Y-93600002D01*
X122603346Y-93600002D01*
X122510057Y-93540049D01*
X122510054Y-93540047D01*
X122510053Y-93540047D01*
X122510050Y-93540046D01*
X122371964Y-93499500D01*
X122371961Y-93499500D01*
X122228039Y-93499500D01*
X122228035Y-93499500D01*
X122089949Y-93540046D01*
X122089942Y-93540049D01*
X121968873Y-93617855D01*
X121874622Y-93726628D01*
X121814834Y-93857543D01*
X121794353Y-93999997D01*
X121794353Y-94000002D01*
X110500500Y-94000002D01*
X110500500Y-90300002D01*
X132894353Y-90300002D01*
X132914834Y-90442456D01*
X132941113Y-90499997D01*
X132974623Y-90573373D01*
X133068872Y-90682143D01*
X133068873Y-90682144D01*
X133189942Y-90759950D01*
X133189947Y-90759953D01*
X133296403Y-90791211D01*
X133328035Y-90800499D01*
X133328036Y-90800499D01*
X133328039Y-90800500D01*
X133328041Y-90800500D01*
X133471959Y-90800500D01*
X133471961Y-90800500D01*
X133610053Y-90759953D01*
X133731128Y-90682143D01*
X133825377Y-90573373D01*
X133858885Y-90500002D01*
X138194353Y-90500002D01*
X138214834Y-90642456D01*
X138268493Y-90759950D01*
X138274623Y-90773373D01*
X138368872Y-90882143D01*
X138368873Y-90882144D01*
X138453523Y-90936545D01*
X138489947Y-90959953D01*
X138596403Y-90991211D01*
X138628035Y-91000499D01*
X138628036Y-91000499D01*
X138628039Y-91000500D01*
X138628041Y-91000500D01*
X138771959Y-91000500D01*
X138771961Y-91000500D01*
X138910053Y-90959953D01*
X138946477Y-90936544D01*
X139005650Y-90920989D01*
X139053522Y-90936544D01*
X139089947Y-90959953D01*
X139196403Y-90991211D01*
X139228035Y-91000499D01*
X139228036Y-91000499D01*
X139228039Y-91000500D01*
X139228041Y-91000500D01*
X139371959Y-91000500D01*
X139371961Y-91000500D01*
X139510053Y-90959953D01*
X139631128Y-90882143D01*
X139725377Y-90773373D01*
X139785165Y-90642457D01*
X139805647Y-90500000D01*
X139785165Y-90357543D01*
X139725377Y-90226627D01*
X139631128Y-90117857D01*
X139631127Y-90117856D01*
X139631126Y-90117855D01*
X139510057Y-90040049D01*
X139510054Y-90040047D01*
X139510053Y-90040047D01*
X139510050Y-90040046D01*
X139371964Y-89999500D01*
X139371961Y-89999500D01*
X139228039Y-89999500D01*
X139228035Y-89999500D01*
X139089949Y-90040046D01*
X139089943Y-90040048D01*
X139053522Y-90063455D01*
X138994347Y-90079008D01*
X138946478Y-90063455D01*
X138910056Y-90040048D01*
X138910050Y-90040046D01*
X138771964Y-89999500D01*
X138771961Y-89999500D01*
X138628039Y-89999500D01*
X138628035Y-89999500D01*
X138489949Y-90040046D01*
X138489942Y-90040049D01*
X138368873Y-90117855D01*
X138274622Y-90226628D01*
X138214834Y-90357543D01*
X138194353Y-90499997D01*
X138194353Y-90500002D01*
X133858885Y-90500002D01*
X133885165Y-90442457D01*
X133905647Y-90300000D01*
X133885165Y-90157543D01*
X133825377Y-90026627D01*
X133731128Y-89917857D01*
X133731127Y-89917856D01*
X133731126Y-89917855D01*
X133610057Y-89840049D01*
X133610054Y-89840047D01*
X133610053Y-89840047D01*
X133610050Y-89840046D01*
X133471964Y-89799500D01*
X133471961Y-89799500D01*
X133328039Y-89799500D01*
X133328035Y-89799500D01*
X133189949Y-89840046D01*
X133189942Y-89840049D01*
X133068873Y-89917855D01*
X132974622Y-90026628D01*
X132914834Y-90157543D01*
X132894353Y-90299997D01*
X132894353Y-90300002D01*
X110500500Y-90300002D01*
X110500500Y-88900002D01*
X141137618Y-88900002D01*
X141158099Y-89042456D01*
X141168195Y-89064562D01*
X141217888Y-89173373D01*
X141220202Y-89176043D01*
X141312138Y-89282144D01*
X141364755Y-89315958D01*
X141433212Y-89359953D01*
X141433213Y-89359953D01*
X141437926Y-89362982D01*
X141476657Y-89410348D01*
X141480151Y-89471433D01*
X141474459Y-89487388D01*
X141471649Y-89493540D01*
X141471648Y-89493543D01*
X141451168Y-89635993D01*
X141451168Y-89635998D01*
X141471649Y-89778452D01*
X141499779Y-89840046D01*
X141531438Y-89909369D01*
X141625687Y-90018139D01*
X141625688Y-90018140D01*
X141696200Y-90063455D01*
X141746762Y-90095949D01*
X141821368Y-90117855D01*
X141884850Y-90136495D01*
X141884851Y-90136495D01*
X141884854Y-90136496D01*
X141884856Y-90136496D01*
X142028774Y-90136496D01*
X142028776Y-90136496D01*
X142166868Y-90095949D01*
X142287943Y-90018139D01*
X142382192Y-89909369D01*
X142441980Y-89778453D01*
X142462462Y-89635996D01*
X142441980Y-89493539D01*
X142382192Y-89362623D01*
X142287943Y-89253853D01*
X142287942Y-89253852D01*
X142287941Y-89253851D01*
X142162153Y-89173013D01*
X142123422Y-89125647D01*
X142119928Y-89064562D01*
X142125626Y-89048596D01*
X142128430Y-89042457D01*
X142148912Y-88900000D01*
X142128430Y-88757543D01*
X142068642Y-88626627D01*
X141974393Y-88517857D01*
X141974392Y-88517856D01*
X141974391Y-88517855D01*
X141853322Y-88440049D01*
X141853319Y-88440047D01*
X141853318Y-88440047D01*
X141853315Y-88440046D01*
X141715229Y-88399500D01*
X141715226Y-88399500D01*
X141571304Y-88399500D01*
X141571300Y-88399500D01*
X141433214Y-88440046D01*
X141433207Y-88440049D01*
X141312138Y-88517855D01*
X141217887Y-88626628D01*
X141158099Y-88757543D01*
X141137618Y-88899997D01*
X141137618Y-88900002D01*
X110500500Y-88900002D01*
X110500500Y-87400002D01*
X132994353Y-87400002D01*
X133014834Y-87542456D01*
X133020840Y-87555607D01*
X133074623Y-87673373D01*
X133168872Y-87782143D01*
X133168873Y-87782144D01*
X133259710Y-87840521D01*
X133289947Y-87859953D01*
X133396403Y-87891211D01*
X133428035Y-87900499D01*
X133428036Y-87900499D01*
X133428039Y-87900500D01*
X133428041Y-87900500D01*
X133571959Y-87900500D01*
X133571961Y-87900500D01*
X133710053Y-87859953D01*
X133831128Y-87782143D01*
X133903981Y-87698066D01*
X146244352Y-87698066D01*
X146264833Y-87840520D01*
X146324621Y-87971435D01*
X146324622Y-87971437D01*
X146418871Y-88080207D01*
X146418872Y-88080208D01*
X146539941Y-88158014D01*
X146539946Y-88158017D01*
X146646402Y-88189275D01*
X146678034Y-88198563D01*
X146678035Y-88198563D01*
X146678038Y-88198564D01*
X146678040Y-88198564D01*
X146821958Y-88198564D01*
X146821960Y-88198564D01*
X146960052Y-88158017D01*
X147081127Y-88080207D01*
X147175376Y-87971437D01*
X147235164Y-87840521D01*
X147255646Y-87698064D01*
X147235164Y-87555607D01*
X147175376Y-87424691D01*
X147081127Y-87315921D01*
X147081126Y-87315920D01*
X147081125Y-87315919D01*
X146960056Y-87238113D01*
X146960053Y-87238111D01*
X146960052Y-87238111D01*
X146960049Y-87238110D01*
X146821963Y-87197564D01*
X146821960Y-87197564D01*
X146678038Y-87197564D01*
X146678034Y-87197564D01*
X146539948Y-87238110D01*
X146539941Y-87238113D01*
X146418872Y-87315919D01*
X146324621Y-87424692D01*
X146264833Y-87555607D01*
X146244352Y-87698061D01*
X146244352Y-87698066D01*
X133903981Y-87698066D01*
X133925377Y-87673373D01*
X133985165Y-87542457D01*
X134005647Y-87400000D01*
X133993558Y-87315921D01*
X133985165Y-87257543D01*
X133925377Y-87126627D01*
X133831128Y-87017857D01*
X133831127Y-87017856D01*
X133831126Y-87017855D01*
X133710057Y-86940049D01*
X133710054Y-86940047D01*
X133710053Y-86940047D01*
X133710050Y-86940046D01*
X133571964Y-86899500D01*
X133571961Y-86899500D01*
X133428039Y-86899500D01*
X133428035Y-86899500D01*
X133289949Y-86940046D01*
X133289942Y-86940049D01*
X133168873Y-87017855D01*
X133074622Y-87126628D01*
X133014834Y-87257543D01*
X132994353Y-87399997D01*
X132994353Y-87400002D01*
X110500500Y-87400002D01*
X110500500Y-86101562D01*
X123694353Y-86101562D01*
X123714834Y-86244016D01*
X123774622Y-86374931D01*
X123774623Y-86374933D01*
X123868872Y-86483703D01*
X123868873Y-86483704D01*
X123989942Y-86561510D01*
X123989947Y-86561513D01*
X124096403Y-86592771D01*
X124128035Y-86602059D01*
X124128036Y-86602059D01*
X124128039Y-86602060D01*
X124128041Y-86602060D01*
X124271959Y-86602060D01*
X124271961Y-86602060D01*
X124410053Y-86561513D01*
X124531128Y-86483703D01*
X124625377Y-86374933D01*
X124685165Y-86244017D01*
X124705647Y-86101560D01*
X124685165Y-85959103D01*
X124631998Y-85842686D01*
X124625024Y-85781900D01*
X124631999Y-85760433D01*
X124685165Y-85644016D01*
X124705647Y-85501562D01*
X124705647Y-85501557D01*
X124685165Y-85359103D01*
X124625377Y-85228188D01*
X124625377Y-85228187D01*
X124531128Y-85119417D01*
X124531127Y-85119416D01*
X124531126Y-85119415D01*
X124410057Y-85041609D01*
X124410054Y-85041607D01*
X124410053Y-85041607D01*
X124410050Y-85041606D01*
X124271964Y-85001060D01*
X124271961Y-85001060D01*
X124128039Y-85001060D01*
X124128035Y-85001060D01*
X123989949Y-85041606D01*
X123989942Y-85041609D01*
X123868873Y-85119415D01*
X123774622Y-85228188D01*
X123714834Y-85359103D01*
X123694353Y-85501557D01*
X123694353Y-85501562D01*
X123714833Y-85644014D01*
X123768001Y-85760434D01*
X123774975Y-85821220D01*
X123768001Y-85842686D01*
X123714833Y-85959105D01*
X123694353Y-86101557D01*
X123694353Y-86101562D01*
X110500500Y-86101562D01*
X110500500Y-84335004D01*
X146256496Y-84335004D01*
X146276977Y-84477458D01*
X146336765Y-84608373D01*
X146336766Y-84608375D01*
X146431015Y-84717145D01*
X146431016Y-84717146D01*
X146552085Y-84794952D01*
X146552090Y-84794955D01*
X146658546Y-84826213D01*
X146690178Y-84835501D01*
X146690179Y-84835501D01*
X146690182Y-84835502D01*
X146690184Y-84835502D01*
X146834102Y-84835502D01*
X146834104Y-84835502D01*
X146972196Y-84794955D01*
X147093271Y-84717145D01*
X147187520Y-84608375D01*
X147247308Y-84477459D01*
X147267790Y-84335002D01*
X147247308Y-84192545D01*
X147187520Y-84061629D01*
X147093271Y-83952859D01*
X147093270Y-83952858D01*
X147093269Y-83952857D01*
X146972200Y-83875051D01*
X146972197Y-83875049D01*
X146972196Y-83875049D01*
X146972193Y-83875048D01*
X146834107Y-83834502D01*
X146834104Y-83834502D01*
X146690182Y-83834502D01*
X146690178Y-83834502D01*
X146552092Y-83875048D01*
X146552085Y-83875051D01*
X146431016Y-83952857D01*
X146336765Y-84061630D01*
X146276977Y-84192545D01*
X146256496Y-84334999D01*
X146256496Y-84335004D01*
X110500500Y-84335004D01*
X110500500Y-82501373D01*
X128312684Y-82501373D01*
X128333165Y-82643827D01*
X128392953Y-82774742D01*
X128392954Y-82774744D01*
X128416192Y-82801562D01*
X128487204Y-82883515D01*
X128598411Y-82954983D01*
X128608278Y-82961324D01*
X128714734Y-82992582D01*
X128746366Y-83001870D01*
X128746367Y-83001870D01*
X128746370Y-83001871D01*
X128746372Y-83001871D01*
X128890290Y-83001871D01*
X128890292Y-83001871D01*
X129028384Y-82961324D01*
X129038243Y-82954988D01*
X136253506Y-82954988D01*
X136273987Y-83097442D01*
X136333775Y-83228357D01*
X136333776Y-83228359D01*
X136362504Y-83261513D01*
X136428026Y-83337130D01*
X136543624Y-83411420D01*
X136549100Y-83414939D01*
X136655556Y-83446197D01*
X136687188Y-83455485D01*
X136687189Y-83455485D01*
X136687192Y-83455486D01*
X136687194Y-83455486D01*
X136831112Y-83455486D01*
X136831114Y-83455486D01*
X136969206Y-83414939D01*
X137090281Y-83337129D01*
X137184530Y-83228359D01*
X137244318Y-83097443D01*
X137264800Y-82954986D01*
X137258464Y-82910922D01*
X139603713Y-82910922D01*
X139624194Y-83053376D01*
X139683714Y-83183704D01*
X139683983Y-83184293D01*
X139750894Y-83261513D01*
X139778233Y-83293064D01*
X139899302Y-83370870D01*
X139899307Y-83370873D01*
X140005763Y-83402131D01*
X140037395Y-83411419D01*
X140037396Y-83411419D01*
X140037399Y-83411420D01*
X140037401Y-83411420D01*
X140181319Y-83411420D01*
X140181321Y-83411420D01*
X140319413Y-83370873D01*
X140440488Y-83293063D01*
X140534737Y-83184293D01*
X140594525Y-83053377D01*
X140608672Y-82954983D01*
X140615007Y-82910922D01*
X140615007Y-82910917D01*
X140599284Y-82801562D01*
X145494353Y-82801562D01*
X145514834Y-82944016D01*
X145574622Y-83074931D01*
X145574623Y-83074933D01*
X145594128Y-83097443D01*
X145668873Y-83183704D01*
X145669790Y-83184293D01*
X145789947Y-83261513D01*
X145896403Y-83292771D01*
X145928035Y-83302059D01*
X145928036Y-83302059D01*
X145928039Y-83302060D01*
X145928041Y-83302060D01*
X146071959Y-83302060D01*
X146071961Y-83302060D01*
X146210053Y-83261513D01*
X146331128Y-83183703D01*
X146425377Y-83074933D01*
X146485165Y-82944017D01*
X146505647Y-82801560D01*
X146501791Y-82774744D01*
X146485165Y-82659103D01*
X146425646Y-82528777D01*
X146425377Y-82528187D01*
X146331128Y-82419417D01*
X146331127Y-82419416D01*
X146331126Y-82419415D01*
X146210057Y-82341609D01*
X146210054Y-82341607D01*
X146210053Y-82341607D01*
X146210050Y-82341606D01*
X146071964Y-82301060D01*
X146071961Y-82301060D01*
X145928039Y-82301060D01*
X145928035Y-82301060D01*
X145789949Y-82341606D01*
X145789942Y-82341609D01*
X145668873Y-82419415D01*
X145574622Y-82528188D01*
X145514834Y-82659103D01*
X145494353Y-82801557D01*
X145494353Y-82801562D01*
X140599284Y-82801562D01*
X140594525Y-82768463D01*
X140534737Y-82637548D01*
X140534737Y-82637547D01*
X140440488Y-82528777D01*
X140440487Y-82528776D01*
X140440486Y-82528775D01*
X140319417Y-82450969D01*
X140319414Y-82450967D01*
X140319413Y-82450967D01*
X140319410Y-82450966D01*
X140181324Y-82410420D01*
X140181321Y-82410420D01*
X140037399Y-82410420D01*
X140037395Y-82410420D01*
X139899309Y-82450966D01*
X139899302Y-82450969D01*
X139778233Y-82528775D01*
X139683982Y-82637548D01*
X139624194Y-82768463D01*
X139603713Y-82910917D01*
X139603713Y-82910922D01*
X137258464Y-82910922D01*
X137258464Y-82910920D01*
X137244318Y-82812529D01*
X137227061Y-82774742D01*
X137184530Y-82681613D01*
X137090281Y-82572843D01*
X137090280Y-82572842D01*
X137090279Y-82572841D01*
X136969210Y-82495035D01*
X136969207Y-82495033D01*
X136969206Y-82495033D01*
X136969203Y-82495032D01*
X136831117Y-82454486D01*
X136831114Y-82454486D01*
X136687192Y-82454486D01*
X136687188Y-82454486D01*
X136549102Y-82495032D01*
X136549095Y-82495035D01*
X136428026Y-82572841D01*
X136333775Y-82681614D01*
X136273987Y-82812529D01*
X136253506Y-82954983D01*
X136253506Y-82954988D01*
X129038243Y-82954988D01*
X129149459Y-82883514D01*
X129243708Y-82774744D01*
X129303496Y-82643828D01*
X129320038Y-82528775D01*
X129323978Y-82501373D01*
X129323978Y-82501368D01*
X129303496Y-82358914D01*
X129295592Y-82341606D01*
X129243708Y-82227998D01*
X129149459Y-82119228D01*
X129149458Y-82119227D01*
X129149457Y-82119226D01*
X129028388Y-82041420D01*
X129028385Y-82041418D01*
X129028384Y-82041418D01*
X129028381Y-82041417D01*
X128890295Y-82000871D01*
X128890292Y-82000871D01*
X128746370Y-82000871D01*
X128746366Y-82000871D01*
X128608280Y-82041417D01*
X128608273Y-82041420D01*
X128487204Y-82119226D01*
X128392953Y-82227999D01*
X128333165Y-82358914D01*
X128312684Y-82501368D01*
X128312684Y-82501373D01*
X110500500Y-82501373D01*
X110500500Y-81400002D01*
X130794353Y-81400002D01*
X130814834Y-81542456D01*
X130874622Y-81673371D01*
X130874623Y-81673373D01*
X130968872Y-81782143D01*
X130968873Y-81782144D01*
X131089942Y-81859950D01*
X131089947Y-81859953D01*
X131196403Y-81891211D01*
X131228035Y-81900499D01*
X131228036Y-81900499D01*
X131228039Y-81900500D01*
X131228041Y-81900500D01*
X131371959Y-81900500D01*
X131371961Y-81900500D01*
X131510053Y-81859953D01*
X131631128Y-81782143D01*
X131702303Y-81700002D01*
X134694353Y-81700002D01*
X134714834Y-81842456D01*
X134774622Y-81973371D01*
X134774623Y-81973373D01*
X134833583Y-82041417D01*
X134868873Y-82082144D01*
X134989942Y-82159950D01*
X134989947Y-82159953D01*
X135096403Y-82191211D01*
X135128035Y-82200499D01*
X135128036Y-82200499D01*
X135128039Y-82200500D01*
X135128041Y-82200500D01*
X135271959Y-82200500D01*
X135271961Y-82200500D01*
X135410053Y-82159953D01*
X135531128Y-82082143D01*
X135625377Y-81973373D01*
X135685165Y-81842457D01*
X135705647Y-81700000D01*
X135701818Y-81673371D01*
X135685165Y-81557543D01*
X135625377Y-81426628D01*
X135625377Y-81426627D01*
X135531128Y-81317857D01*
X135531127Y-81317856D01*
X135531126Y-81317855D01*
X135410057Y-81240049D01*
X135410054Y-81240047D01*
X135410053Y-81240047D01*
X135410050Y-81240046D01*
X135271964Y-81199500D01*
X135271961Y-81199500D01*
X135128039Y-81199500D01*
X135128035Y-81199500D01*
X134989949Y-81240046D01*
X134989942Y-81240049D01*
X134868873Y-81317855D01*
X134774622Y-81426628D01*
X134714834Y-81557543D01*
X134694353Y-81699997D01*
X134694353Y-81700002D01*
X131702303Y-81700002D01*
X131725377Y-81673373D01*
X131785165Y-81542457D01*
X131805647Y-81400000D01*
X131796373Y-81335500D01*
X131785165Y-81257543D01*
X131725377Y-81126628D01*
X131725377Y-81126627D01*
X131631128Y-81017857D01*
X131631127Y-81017856D01*
X131631126Y-81017855D01*
X131510057Y-80940049D01*
X131510054Y-80940047D01*
X131510053Y-80940047D01*
X131510050Y-80940046D01*
X131371964Y-80899500D01*
X131371961Y-80899500D01*
X131228039Y-80899500D01*
X131228035Y-80899500D01*
X131089949Y-80940046D01*
X131089942Y-80940049D01*
X130968873Y-81017855D01*
X130874622Y-81126628D01*
X130814834Y-81257543D01*
X130794353Y-81399997D01*
X130794353Y-81400002D01*
X110500500Y-81400002D01*
X110500500Y-80837351D01*
X139094353Y-80837351D01*
X139114834Y-80979805D01*
X139173549Y-81108371D01*
X139174623Y-81110722D01*
X139268872Y-81219492D01*
X139268873Y-81219493D01*
X139386287Y-81294950D01*
X139389947Y-81297302D01*
X139459952Y-81317857D01*
X139528035Y-81337848D01*
X139528036Y-81337848D01*
X139528039Y-81337849D01*
X139528041Y-81337849D01*
X139671959Y-81337849D01*
X139671961Y-81337849D01*
X139810053Y-81297302D01*
X139931128Y-81219492D01*
X140025377Y-81110722D01*
X140085165Y-80979806D01*
X140105647Y-80837349D01*
X140105309Y-80835002D01*
X140394353Y-80835002D01*
X140414834Y-80977456D01*
X140433284Y-81017855D01*
X140474623Y-81108373D01*
X140568872Y-81217143D01*
X140568873Y-81217144D01*
X140689942Y-81294950D01*
X140689947Y-81294953D01*
X140767945Y-81317855D01*
X140828035Y-81335499D01*
X140828036Y-81335499D01*
X140828039Y-81335500D01*
X140828041Y-81335500D01*
X140971959Y-81335500D01*
X140971961Y-81335500D01*
X141110053Y-81294953D01*
X141231128Y-81217143D01*
X141325377Y-81108373D01*
X141385165Y-80977457D01*
X141405309Y-80837351D01*
X141405647Y-80835002D01*
X141405647Y-80834997D01*
X141385165Y-80692543D01*
X141326450Y-80563977D01*
X141325377Y-80561627D01*
X141231128Y-80452857D01*
X141231127Y-80452856D01*
X141231126Y-80452855D01*
X141110057Y-80375049D01*
X141110054Y-80375047D01*
X141110053Y-80375047D01*
X141110050Y-80375046D01*
X140971964Y-80334500D01*
X140971961Y-80334500D01*
X140828039Y-80334500D01*
X140828035Y-80334500D01*
X140689949Y-80375046D01*
X140689942Y-80375049D01*
X140568873Y-80452855D01*
X140474622Y-80561628D01*
X140414834Y-80692543D01*
X140394353Y-80834997D01*
X140394353Y-80835002D01*
X140105309Y-80835002D01*
X140105309Y-80835000D01*
X140085165Y-80694892D01*
X140025377Y-80563977D01*
X140025377Y-80563976D01*
X139967039Y-80496650D01*
X139943223Y-80440294D01*
X139957081Y-80380699D01*
X139967032Y-80367001D01*
X140025377Y-80299668D01*
X140085165Y-80168752D01*
X140105647Y-80026295D01*
X140085165Y-79883838D01*
X140025377Y-79752922D01*
X139931128Y-79644152D01*
X139931127Y-79644151D01*
X139931126Y-79644150D01*
X139810057Y-79566344D01*
X139810054Y-79566342D01*
X139810053Y-79566342D01*
X139810050Y-79566341D01*
X139671964Y-79525795D01*
X139671961Y-79525795D01*
X139528039Y-79525795D01*
X139528035Y-79525795D01*
X139389949Y-79566341D01*
X139389942Y-79566344D01*
X139268873Y-79644150D01*
X139174622Y-79752923D01*
X139114834Y-79883838D01*
X139094353Y-80026292D01*
X139094353Y-80026297D01*
X139114834Y-80168751D01*
X139174623Y-80299668D01*
X139232958Y-80366992D01*
X139256775Y-80423351D01*
X139242916Y-80482946D01*
X139232958Y-80496652D01*
X139174623Y-80563975D01*
X139114834Y-80694892D01*
X139094353Y-80837346D01*
X139094353Y-80837351D01*
X110500500Y-80837351D01*
X110500500Y-78700002D01*
X134694353Y-78700002D01*
X134714834Y-78842456D01*
X134774622Y-78973371D01*
X134774623Y-78973373D01*
X134868872Y-79082143D01*
X134868873Y-79082144D01*
X134989942Y-79159950D01*
X134989947Y-79159953D01*
X135096403Y-79191211D01*
X135128035Y-79200499D01*
X135128036Y-79200499D01*
X135128039Y-79200500D01*
X135128041Y-79200500D01*
X135271959Y-79200500D01*
X135271961Y-79200500D01*
X135410053Y-79159953D01*
X135531128Y-79082143D01*
X135625377Y-78973373D01*
X135685165Y-78842457D01*
X135705647Y-78700000D01*
X135685165Y-78557543D01*
X135625377Y-78426627D01*
X135531128Y-78317857D01*
X135531127Y-78317856D01*
X135531126Y-78317855D01*
X135410057Y-78240049D01*
X135410054Y-78240047D01*
X135410053Y-78240047D01*
X135410050Y-78240046D01*
X135271964Y-78199500D01*
X135271961Y-78199500D01*
X135128039Y-78199500D01*
X135128035Y-78199500D01*
X134989949Y-78240046D01*
X134989942Y-78240049D01*
X134868873Y-78317855D01*
X134774622Y-78426628D01*
X134714834Y-78557543D01*
X134694353Y-78699997D01*
X134694353Y-78700002D01*
X110500500Y-78700002D01*
X110500500Y-75002165D01*
X110500594Y-74997847D01*
X110510433Y-74772498D01*
X110517434Y-74612144D01*
X110518184Y-74603568D01*
X110568295Y-74222942D01*
X110569791Y-74214459D01*
X110652883Y-73839655D01*
X110655115Y-73831326D01*
X110770553Y-73465202D01*
X110773507Y-73457086D01*
X110785072Y-73429166D01*
X110920421Y-73102403D01*
X110924056Y-73094609D01*
X111101325Y-72754079D01*
X111105632Y-72746618D01*
X111311913Y-72422820D01*
X111316851Y-72415769D01*
X111550564Y-72111189D01*
X111556083Y-72104612D01*
X111815481Y-71821528D01*
X111821528Y-71815481D01*
X112104612Y-71556083D01*
X112111189Y-71550564D01*
X112415769Y-71316851D01*
X112422820Y-71311913D01*
X112746618Y-71105632D01*
X112754079Y-71101325D01*
X113094609Y-70924056D01*
X113102403Y-70920421D01*
X113457093Y-70773504D01*
X113465194Y-70770555D01*
X113831334Y-70655112D01*
X113839655Y-70652883D01*
X114214459Y-70569791D01*
X114222942Y-70568295D01*
X114603568Y-70518184D01*
X114612144Y-70517434D01*
X114997847Y-70500593D01*
X115002165Y-70500500D01*
X115065892Y-70500500D01*
X164934108Y-70500500D01*
X164997835Y-70500500D01*
X165002152Y-70500593D01*
G37*
%TD.AperFunction*%
%TD*%
M02*
